<?xml version="1.0" standalone="no"?>
<!DOCTYPE svg PUBLIC "-//W3C//DTD SVG 20010904//EN"
 "http://www.w3.org/TR/2001/REC-SVG-20010904/DTD/svg10.dtd">
<svg version="1.0" xmlns="http://www.w3.org/2000/svg"
 width="999.000000pt" height="999.000000pt" viewBox="0 0 999.000000 999.000000"
 preserveAspectRatio="xMidYMid meet">
<metadata>
Created by potrace 1.11, written by Peter Selinger 2001-2013
</metadata>
<g transform="translate(0.000000,999.000000) scale(0.100000,-0.100000)"
fill="#000000" stroke="none">
<path d="M4986 9971 c-3 -4 -88 -11 -188 -15 -170 -7 -467 -40 -583 -66 -27
-6 -65 -14 -83 -17 -18 -3 -35 -9 -38 -14 -3 -5 -22 -9 -43 -9 -20 0 -41 -4
-46 -9 -11 -9 -81 -27 -142 -36 -24 -4 -45 -11 -49 -16 -3 -5 -14 -9 -24 -9
-38 0 -308 -88 -335 -109 -5 -5 -27 -12 -49 -15 -21 -4 -55 -16 -75 -27 -20
-10 -39 -19 -43 -19 -4 0 -31 -11 -60 -24 -29 -13 -75 -31 -103 -41 -27 -10
-57 -24 -65 -30 -8 -6 -35 -18 -60 -25 -25 -8 -68 -26 -97 -42 -29 -15 -59
-28 -67 -28 -15 0 -86 -31 -121 -53 -11 -7 -36 -23 -55 -35 -19 -12 -42 -22
-51 -22 -9 0 -22 -7 -29 -15 -7 -8 -19 -15 -26 -15 -14 0 -106 -57 -134 -84
-8 -7 -36 -24 -62 -36 -26 -12 -52 -28 -59 -36 -6 -8 -17 -14 -24 -14 -7 0
-15 -7 -19 -15 -4 -12 -68 -60 -135 -100 -54 -32 -97 -61 -106 -71 -5 -5 -33
-28 -62 -49 -29 -21 -54 -44 -57 -52 -3 -7 -10 -13 -16 -13 -16 0 -175 -134
-251 -212 -36 -38 -70 -68 -75 -68 -6 0 -35 -26 -64 -57 -30 -31 -76 -78 -102
-104 -27 -26 -48 -50 -48 -55 0 -11 -73 -78 -82 -76 -5 1 -8 -2 -8 -7 0 -6
-14 -25 -30 -43 -17 -18 -43 -51 -57 -73 -15 -22 -36 -48 -46 -59 -28 -28
-122 -157 -141 -194 -10 -19 -21 -30 -28 -26 -6 4 -8 3 -4 -4 6 -10 -58 -122
-101 -175 -13 -16 -23 -34 -23 -41 0 -7 -14 -32 -30 -54 -17 -23 -26 -42 -22
-42 5 0 9 -7 9 -16 0 -10 -7 -14 -19 -11 -12 4 -18 0 -18 -13 0 -10 -7 -23
-15 -30 -8 -7 -15 -19 -15 -26 0 -8 -4 -14 -10 -14 -5 0 -10 -9 -10 -21 0 -11
-4 -17 -10 -14 -6 3 -7 -1 -4 -9 4 -9 -1 -18 -10 -22 -9 -3 -16 -14 -16 -23 0
-23 -35 -95 -54 -111 -9 -7 -16 -17 -16 -23 0 -26 -33 -96 -43 -90 -5 3 -7 2
-4 -4 6 -10 -15 -59 -45 -101 -8 -13 -14 -31 -11 -41 2 -9 -3 -23 -11 -30 -9
-8 -16 -22 -16 -31 0 -10 -10 -40 -21 -67 -12 -26 -21 -58 -21 -70 1 -12 -9
-34 -23 -49 -13 -14 -28 -43 -31 -63 -4 -20 -13 -48 -21 -63 -7 -15 -14 -30
-14 -33 -1 -12 -37 -106 -42 -112 -4 -3 -7 -13 -7 -22 0 -9 -7 -29 -15 -45 -8
-15 -15 -39 -15 -51 0 -13 -9 -47 -19 -77 -11 -29 -27 -91 -36 -138 -9 -47
-21 -94 -25 -105 -19 -47 -23 -61 -21 -72 1 -7 -3 -13 -8 -13 -6 0 -8 -6 -5
-14 3 -8 0 -34 -7 -57 -7 -24 -12 -47 -11 -51 1 -4 -3 -28 -9 -55 -5 -26 -10
-63 -9 -80 0 -18 -4 -33 -9 -33 -6 0 -7 -7 -4 -17 5 -12 3 -14 -8 -8 -11 7
-12 6 -2 -6 8 -10 9 -27 2 -59 -5 -25 -11 -63 -14 -85 -4 -22 -9 -47 -12 -55
-3 -8 -6 -46 -7 -85 -1 -54 -4 -69 -15 -67 -11 2 -12 0 -2 -11 13 -17 10 -93
-5 -90 -13 2 -10 -583 3 -599 6 -7 11 -35 12 -63 0 -27 4 -72 7 -100 4 -27 7
-65 7 -82 1 -18 5 -33 10 -33 4 0 7 -8 6 -17 -2 -10 1 -33 5 -51 5 -23 4 -38
-6 -49 -7 -9 -8 -14 -2 -10 8 5 14 -7 17 -36 3 -23 7 -51 9 -62 2 -13 -2 -19
-10 -17 -8 1 -11 -2 -7 -8 3 -6 11 -8 16 -5 8 5 14 -34 10 -59 -1 -5 2 -12 8
-15 5 -4 12 -24 15 -46 3 -22 8 -53 11 -68 3 -16 2 -26 -3 -23 -5 3 -9 -1 -9
-8 0 -8 7 -12 15 -8 9 3 13 1 9 -5 -4 -6 -2 -13 3 -15 6 -2 12 -14 14 -28 1
-14 6 -33 11 -43 5 -13 2 -22 -11 -33 -14 -10 -15 -13 -3 -8 17 5 34 -20 24
-36 -3 -5 -1 -11 5 -15 5 -3 10 -11 10 -16 0 -6 -4 -8 -8 -5 -4 2 -14 1 -20
-3 -10 -6 -9 -11 3 -21 13 -11 14 -10 9 4 -5 12 -2 15 10 10 10 -4 15 -12 12
-19 -2 -7 -2 -16 2 -20 4 -4 7 -10 8 -13 0 -4 4 -14 7 -22 17 -38 35 -125 26
-128 -5 -2 -1 -11 10 -20 15 -14 65 -130 66 -154 0 -3 3 -10 7 -14 5 -4 8 -15
8 -24 0 -10 7 -23 16 -31 8 -7 13 -21 11 -30 -3 -10 0 -20 6 -22 6 -2 7 -9 3
-15 -10 -16 -29 -15 -20 1 4 6 3 8 -1 4 -14 -12 -15 -37 -2 -34 7 1 15 6 18
11 8 10 29 -1 29 -15 0 -6 -6 -7 -12 -4 -7 4 -4 -1 6 -9 11 -9 16 -16 11 -16
-4 0 -1 -8 7 -17 22 -26 43 -67 29 -59 -19 12 -12 -2 14 -28 14 -14 25 -34 25
-46 0 -11 9 -29 20 -40 21 -21 18 -45 -5 -36 -7 2 -16 -2 -19 -9 -4 -11 0 -12
20 -5 32 13 37 12 28 -1 -3 -6 0 -15 7 -20 11 -8 10 -12 -5 -24 -11 -8 -15
-15 -9 -15 7 0 15 4 18 10 3 5 11 10 17 10 6 0 5 -7 -3 -17 -7 -10 -10 -15 -5
-11 4 4 18 -2 29 -13 16 -15 18 -22 9 -31 -7 -7 -12 -17 -12 -22 0 -6 4 -5 8
2 7 9 13 7 28 -9 19 -22 19 -22 -6 -16 -24 6 -24 6 1 -5 31 -13 65 -73 47 -84
-7 -5 -8 -3 -3 6 5 9 4 11 -4 6 -16 -10 -4 -26 14 -19 11 4 13 1 8 -13 -5 -13
-3 -15 7 -9 8 5 11 4 7 -2 -4 -6 0 -13 8 -17 21 -8 19 -27 -3 -19 -9 3 -14 3
-10 -2 4 -4 17 -8 28 -9 11 0 21 -5 21 -11 0 -5 7 -17 15 -27 9 -9 17 -23 18
-32 1 -9 11 -22 22 -30 16 -13 17 -17 5 -28 -12 -11 -13 -10 -8 5 4 11 3 16
-3 12 -6 -3 -10 -1 -10 6 0 7 -3 10 -6 6 -10 -10 14 -42 32 -42 9 0 19 -7 21
-15 4 -13 3 -13 -6 0 -6 8 -11 11 -11 5 0 -15 16 -37 26 -35 5 1 15 -9 23 -22
12 -21 12 -21 -8 2 -13 15 -19 18 -15 8 3 -9 21 -29 40 -43 19 -14 34 -32 34
-39 0 -7 9 -22 20 -34 20 -21 20 -21 -2 -36 -12 -9 -17 -16 -11 -16 7 0 15 5
18 10 9 15 25 12 25 -6 0 -8 -4 -12 -10 -9 -5 3 -10 1 -10 -5 0 -7 7 -9 16 -6
19 7 57 -21 48 -35 -3 -5 0 -9 7 -9 7 0 10 -3 7 -6 -3 -3 4 -16 16 -29 51 -56
59 -73 25 -54 -25 13 -43 0 -28 -21 9 -12 10 -12 5 4 -5 14 -3 17 11 11 10 -4
24 -8 32 -9 7 -1 19 -13 26 -27 8 -13 17 -22 21 -19 4 3 15 -10 25 -27 10 -18
17 -33 15 -33 -2 0 13 -17 33 -38 96 -100 126 -138 123 -154 -2 -10 -8 -18
-13 -18 -6 0 -7 6 -3 12 4 7 4 10 -1 6 -4 -4 -17 -2 -29 4 -15 8 -13 3 8 -16
15 -15 29 -26 31 -24 1 2 7 12 13 23 10 17 11 18 12 3 0 -10 5 -18 10 -18 6 0
10 -7 10 -15 0 -8 5 -15 11 -15 5 0 7 5 3 12 -5 7 -3 8 5 4 7 -5 10 -10 8 -13
-3 -2 19 -27 49 -55 29 -28 51 -54 48 -59 -3 -5 0 -9 6 -9 16 0 160 -141 154
-151 -3 -5 0 -10 5 -10 22 -3 26 -5 53 -23 17 -11 25 -23 21 -33 -4 -10 -2
-14 4 -10 6 4 13 -2 16 -13 3 -11 -1 -23 -9 -28 -11 -6 -10 -10 4 -19 15 -9
21 -7 31 11 11 17 11 19 0 8 -18 -17 -34 -15 -19 3 6 8 8 20 4 27 -4 7 3 4 17
-7 13 -11 25 -20 26 -20 1 -1 -9 -13 -23 -28 -14 -15 -20 -27 -15 -27 6 0 15
9 21 21 10 17 14 18 27 7 9 -7 18 -12 20 -10 6 5 53 -35 53 -46 0 -5 9 -12 20
-15 20 -5 29 -37 10 -37 -6 0 -9 3 -8 7 2 5 -6 17 -18 29 l-21 21 0 -38 c0
-21 4 -36 9 -33 5 3 6 14 3 25 -5 14 -3 17 9 13 9 -3 14 -10 11 -14 -3 -4 2
-13 9 -19 11 -10 16 -8 21 9 5 16 10 18 20 10 14 -12 14 -27 2 -47 -5 -7 -3
-21 3 -30 9 -15 10 -14 4 7 -6 24 -5 24 12 8 14 -14 15 -20 5 -32 -7 -9 -11
-21 -8 -28 3 -8 6 -6 6 5 1 10 6 15 12 12 6 -4 8 -14 5 -24 -4 -9 2 -5 13 8
21 27 69 37 78 16 3 -8 -2 -22 -12 -31 -14 -15 -14 -18 0 -33 8 -10 15 -23 15
-29 0 -7 5 -12 11 -12 11 0 4 15 -19 43 -9 10 -11 17 -4 17 6 0 14 -5 17 -11
4 -6 13 -8 21 -5 7 3 17 -2 22 -11 6 -9 12 -12 16 -5 3 5 -1 13 -10 16 -8 3
-12 11 -8 17 5 8 9 7 14 -2 5 -7 19 -14 31 -16 32 -5 41 -16 43 -51 1 -17 5
-34 8 -38 4 -4 0 -13 -10 -21 -16 -12 -16 -13 1 -7 13 5 16 2 11 -12 -5 -18
-5 -18 6 -1 6 9 16 17 22 17 7 0 6 -5 -2 -15 -8 -9 -8 -15 -2 -15 22 0 18 26
-7 47 -14 11 -23 25 -19 29 4 4 21 -7 38 -24 16 -18 30 -28 30 -24 0 4 -5 13
-11 19 -9 9 -7 12 9 10 12 0 19 -3 17 -5 -5 -5 21 -32 30 -32 3 0 3 5 -1 11
-4 7 2 6 17 -1 44 -23 66 -45 61 -60 -5 -13 -3 -13 11 -1 15 11 18 10 27 -14
11 -29 -3 -61 -21 -49 -5 3 -9 0 -9 -5 0 -14 17 -14 25 -1 9 15 44 -31 37 -50
-4 -12 -2 -12 8 -3 10 9 8 17 -8 40 -19 27 -19 30 -4 41 11 8 12 11 3 9 -7 -1
-16 5 -18 13 -4 12 -3 12 5 2 5 -8 13 -13 18 -13 5 0 9 -7 10 -17 2 -41 4 -43
26 -36 21 6 21 5 9 -10 -12 -14 -12 -19 -1 -29 10 -10 12 -8 6 7 -5 14 -2 17
9 12 9 -3 13 -2 10 4 -3 6 1 10 9 10 20 0 20 -14 1 -30 -11 -9 -12 -17 -4 -32
6 -11 13 -17 16 -14 3 3 0 12 -6 20 -7 9 -8 17 -2 20 5 3 11 0 14 -6 3 -10 7
-10 17 -1 10 9 10 16 2 26 -9 11 -8 14 3 14 8 0 15 -3 15 -7 0 -4 12 -12 26
-18 23 -11 25 -32 3 -32 -6 0 -8 4 -4 9 3 5 0 13 -6 16 -11 7 -25 -9 -55 -60
-18 -33 -9 -26 23 17 20 27 21 27 38 8 10 -11 24 -16 33 -12 15 5 15 3 4 -11
-8 -9 -21 -13 -30 -10 -14 5 -15 3 -5 -7 10 -11 15 -11 28 0 13 11 19 11 33
-4 16 -16 16 -18 -1 -30 -16 -13 -16 -14 -1 -20 9 -4 19 -4 22 -1 3 3 0 5 -8
5 -9 0 -10 3 -1 14 6 8 11 18 10 22 -3 20 2 28 9 16 5 -7 16 -10 25 -6 9 3 14
10 11 15 -2 5 14 0 38 -10 36 -15 43 -22 43 -47 0 -16 6 -38 12 -50 8 -13 9
-25 3 -32 -7 -9 -7 -9 2 -2 7 6 16 4 26 -8 8 -9 6 -4 -3 12 -14 24 -15 30 -4
38 11 7 9 8 -5 6 -10 -2 -21 2 -23 9 -3 8 5 10 24 7 36 -7 39 -10 23 -29 -7
-9 -8 -15 -2 -15 6 0 13 6 15 13 4 10 6 10 6 0 1 -7 6 -13 12 -13 5 0 7 4 4
10 -14 23 9 9 54 -31 16 -14 18 -13 29 10 9 19 9 22 0 13 -16 -16 -29 -15 -22
2 6 16 19 15 50 -2 12 -6 24 -9 27 -5 4 3 9 -2 13 -11 3 -9 10 -13 15 -10 5 3
16 -1 24 -10 20 -19 19 -32 0 -16 -15 12 -21 3 -16 -24 1 -4 -3 -14 -8 -20 -8
-9 -7 -18 3 -31 10 -14 15 -15 21 -5 5 8 4 11 -2 7 -6 -4 -14 0 -17 8 -3 9 1
18 9 22 12 4 13 9 4 19 -8 9 -8 14 -1 14 6 0 14 -5 17 -10 12 -19 26 -10 20
12 -6 18 -4 20 11 13 11 -4 28 -9 39 -10 11 -2 22 -4 25 -4 2 -1 -1 -6 -8 -13
-15 -15 -15 -28 -1 -28 5 0 8 4 5 9 -3 5 1 11 9 15 8 3 17 1 20 -5 4 -5 11 -6
17 -3 15 10 -13 -39 -31 -54 -14 -11 -14 -11 3 -5 14 5 17 3 11 -7 -5 -8 -4
-11 3 -6 6 3 13 2 17 -4 10 -16 23 -12 36 11 14 27 -4 50 -23 31 -10 -10 -10
-15 2 -22 8 -5 11 -12 7 -16 -4 -4 -14 -1 -22 7 -13 13 -13 17 1 37 12 17 19
20 33 12 10 -5 21 -7 24 -3 3 3 14 2 24 -2 10 -5 20 -9 23 -9 16 -4 50 -33 50
-42 0 -6 -9 -19 -20 -29 -13 -12 -17 -22 -11 -28 13 -13 32 1 29 20 -2 9 2 18
8 20 7 2 11 -2 10 -9 0 -7 3 -14 8 -15 5 -1 13 -7 18 -15 8 -10 9 -10 5 2 -2
8 -10 14 -16 12 -6 -1 -11 2 -11 8 0 14 27 12 37 -2 4 -7 7 -24 6 -38 l-2 -25
7 25 c5 15 11 20 15 13 4 -6 4 -19 0 -29 -4 -12 -3 -15 5 -10 14 8 16 46 3 46
-5 0 -8 8 -7 18 0 10 -6 16 -16 16 -10 -1 -18 2 -18 7 0 5 -6 6 -14 3 -8 -3
-17 0 -21 6 -13 21 2 21 49 0 26 -11 50 -19 54 -19 20 3 42 -2 42 -10 0 -5
-15 -8 -32 -6 -18 2 -27 1 -20 -2 6 -2 9 -9 6 -15 -4 -6 2 -5 15 1 11 7 21 9
21 5 0 -3 7 -1 15 6 8 7 23 9 37 4 13 -4 23 -5 24 -3 0 2 8 -2 18 -10 9 -8 14
-21 11 -31 -3 -9 1 -22 8 -29 11 -8 16 -6 25 13 9 21 16 24 49 20 69 -7 88
-11 109 -22 12 -6 24 -9 28 -7 3 3 4 2 1 -2 -8 -10 -45 -11 -39 -1 3 4 1 8 -4
8 -18 0 -23 -33 -7 -49 12 -12 17 -13 27 -2 11 10 9 12 -6 9 -10 -1 -21 2 -23
9 -3 7 5 10 22 8 14 -1 33 4 41 12 8 9 14 10 14 3 0 -6 4 -9 9 -5 11 6 54 -36
45 -44 -3 -3 -14 5 -25 18 -10 13 -19 18 -19 12 0 -6 -3 -10 -7 -10 -20 3 -30
-3 -47 -32 -11 -18 -14 -29 -8 -25 6 3 12 3 15 -1 2 -5 2 -2 0 6 -5 19 16 41
33 34 8 -3 14 0 14 6 0 7 10 3 22 -8 20 -19 22 -19 33 -4 7 10 11 24 8 33 -3
9 -1 11 4 5 4 -5 26 -11 47 -11 25 -1 42 -7 48 -18 7 -12 16 -15 31 -10 18 6
20 4 10 -7 -9 -11 -8 -19 3 -33 8 -11 14 -15 14 -8 0 6 6 9 14 6 8 -3 17 -1
20 4 8 13 -4 43 -14 37 -4 -2 -15 1 -25 9 -15 11 -16 13 -1 13 9 0 16 -4 16
-9 0 -5 4 -7 9 -3 5 3 12 1 15 -3 3 -5 24 -8 46 -6 44 3 52 -9 18 -27 -18 -10
-20 -9 -15 5 4 9 2 16 -3 16 -16 0 -11 -26 7 -41 11 -10 14 -10 9 -1 -4 6 -2
12 3 12 6 0 11 -6 11 -12 0 -9 3 -8 9 2 6 8 7 18 5 22 -3 4 2 8 10 8 19 0 21
-11 4 -28 -8 -8 -8 -12 -1 -12 21 0 25 34 6 48 -16 13 -16 13 7 7 30 -9 67
-14 175 -20 94 -5 107 -7 100 -13 -8 -8 -56 -11 -51 -3 3 3 -4 7 -14 7 -10 0
-17 -3 -14 -7 2 -4 -1 -9 -8 -11 -7 -3 14 -4 45 -4 31 1 57 5 57 10 0 5 7 3
15 -4 12 -10 15 -10 15 0 0 9 4 9 17 -1 11 -10 14 -10 9 -1 -5 8 0 12 16 12
18 0 20 -2 8 -10 -8 -5 -10 -10 -5 -10 6 0 16 5 23 12 9 9 12 9 12 0 0 -18
510 -17 529 1 11 10 12 9 6 -3 -6 -12 -5 -13 5 -3 9 9 19 9 33 2 14 -8 18 -8
13 0 -4 6 -3 11 3 11 5 0 11 -6 14 -12 3 -10 7 -10 20 1 11 9 17 10 17 2 0 -6
5 -11 11 -11 5 0 8 4 5 9 -4 5 2 8 11 6 10 -2 18 -4 18 -6 0 -1 17 -3 39 -4
28 -2 34 0 22 7 -9 5 -21 6 -28 2 -6 -4 -8 -3 -5 3 8 14 86 10 95 -4 5 -6 14
-3 27 10 20 20 20 20 -2 8 -15 -8 -23 -8 -23 -1 0 9 20 14 47 11 7 -1 22 3 34
10 15 8 19 8 15 0 -4 -6 -2 -11 5 -11 6 0 9 -8 6 -20 -4 -17 -2 -18 15 -9 16
8 23 8 30 -2 7 -11 8 -9 6 5 -2 10 3 21 11 24 9 3 11 0 6 -9 -5 -8 -4 -11 0
-6 5 4 18 -1 29 -10 20 -18 20 -17 6 2 -8 11 -21 24 -27 28 -22 13 -15 29 6
17 15 -8 22 -7 29 6 5 9 24 16 50 17 23 1 42 4 42 7 0 4 14 6 30 6 22 0 29 -4
25 -13 -2 -8 -1 -11 4 -8 5 3 13 -4 16 -15 5 -17 9 -19 21 -9 12 10 19 7 39
-11 14 -13 25 -20 25 -15 0 4 -8 15 -17 24 -25 23 -26 40 -3 38 12 -1 18 -7
16 -13 -5 -14 9 -27 37 -37 11 -4 16 -3 12 3 -3 6 -12 10 -20 10 -16 0 -14 25
4 43 11 10 12 8 6 -10 -3 -13 -2 -23 3 -23 12 0 9 40 -3 60 -5 9 -4 11 3 6 7
-4 12 -3 12 3 0 5 10 8 21 6 12 -3 27 -1 33 3 19 11 45 12 51 1 11 -17 -2 -22
-24 -10 -16 9 -19 9 -15 -2 3 -8 -2 -20 -11 -27 -8 -7 -15 -18 -15 -24 0 -6 5
-3 11 6 5 10 17 15 27 12 13 -5 14 -4 3 4 -7 5 -9 12 -4 15 5 3 21 -7 36 -23
30 -31 34 -41 15 -38 -8 2 -13 -8 -14 -24 -1 -15 2 -25 7 -23 4 3 5 14 2 25
-4 15 -1 18 16 15 23 -4 21 5 -8 38 -9 11 -16 31 -17 46 -1 23 3 28 20 27 11
-1 33 6 49 17 27 18 27 18 24 -4 -2 -13 -10 -25 -17 -27 -7 -3 -10 0 -6 7 4 6
2 11 -3 11 -6 0 -12 -6 -13 -12 0 -7 -2 -17 -3 -23 -2 -5 -3 -16 -4 -23 0 -7
-5 -11 -10 -8 -4 3 -7 17 -6 31 2 14 0 25 -5 25 -13 0 -8 -49 6 -60 15 -13 34
16 26 40 -4 12 -2 13 9 2 8 -7 14 -19 14 -27 0 -8 4 -14 9 -14 5 0 13 -5 18
-13 8 -10 9 -10 5 2 -2 8 -10 14 -16 12 -21 -4 -11 18 12 27 29 11 56 41 37
41 -20 0 -2 14 20 15 24 2 25 -2 5 -21 -8 -9 -15 -21 -15 -27 1 -24 38 37 38
61 0 21 -2 22 -10 9 -10 -19 -28 -23 -28 -6 0 5 4 8 9 5 5 -4 11 -1 13 6 4 11
34 18 81 19 9 0 15 4 13 8 -3 4 1 8 9 8 8 0 13 -11 13 -26 -1 -42 1 -49 16
-54 10 -4 13 -1 9 9 -3 7 -9 14 -14 14 -4 0 -6 7 -2 16 6 15 7 15 19 -1 17
-23 32 -12 31 22 0 16 -2 22 -4 15 -4 -10 -8 -9 -17 4 -11 15 -13 15 -13 1 0
-9 6 -18 14 -21 7 -3 13 -11 13 -17 0 -8 -7 -5 -19 5 -29 27 -20 51 20 52 19
1 36 3 39 4 3 1 13 3 23 5 10 2 27 11 38 21 10 9 35 18 54 19 19 2 41 8 48 14
8 6 22 12 33 14 10 1 26 7 34 12 25 16 42 15 36 -2 -3 -8 -6 -17 -6 -20 0 -3
-7 0 -15 7 -15 12 -21 4 -16 -23 1 -5 -4 -7 -11 -4 -7 2 -12 10 -10 17 2 10 0
11 -11 2 -8 -7 -18 -8 -22 -4 -5 4 -5 1 0 -7 6 -10 4 -12 -6 -6 -8 4 -3 -3 11
-16 14 -14 27 -24 29 -22 3 2 -1 9 -7 15 -17 17 -15 33 3 18 15 -13 39 -5 30
11 -11 16 37 3 50 -14 7 -9 16 -17 20 -17 4 0 1 8 -6 17 -12 15 -12 16 4 10
10 -4 16 -3 12 2 -3 5 -1 12 5 16 15 9 12 32 -6 39 -8 3 -12 2 -9 -4 3 -6 -1
-7 -9 -4 -22 8 -20 11 14 23 18 6 28 6 25 1 -3 -6 1 -7 9 -4 9 3 13 11 9 18
-3 6 -1 6 8 -1 16 -16 29 -17 29 -2 0 5 -4 7 -10 4 -5 -3 -10 -1 -10 5 0 7 7
10 15 6 8 -3 15 -1 15 4 0 4 17 14 38 21 20 7 47 18 59 26 12 8 27 12 33 8 5
-3 10 -1 10 4 0 6 5 11 11 11 19 0 3 -25 -17 -26 -38 -2 -42 -4 -40 -21 1 -20
44 -59 53 -49 4 3 0 6 -8 6 -12 0 -11 2 1 11 12 8 11 9 -5 7 -14 -2 -21 3 -23
20 -2 12 2 22 8 22 7 0 10 -6 7 -14 -4 -9 2 -13 16 -11 12 0 34 -5 49 -12 25
-12 28 -11 38 8 7 11 9 23 6 27 -3 3 -6 0 -6 -7 0 -7 -4 -9 -10 -6 -6 4 -7 -1
-3 -10 5 -16 3 -16 -23 -2 -16 8 -36 12 -44 10 -11 -3 -10 0 3 10 9 8 17 20
17 27 0 7 7 10 16 6 8 -3 12 -2 9 4 -3 6 -1 10 4 10 6 0 10 5 9 11 -2 6 6 13
17 15 15 2 21 -3 22 -17 2 -20 1 -20 -16 -5 -17 16 -18 15 -16 -9 3 -22 -5
-30 -27 -26 -5 0 -8 -3 -8 -9 0 -13 6 -13 31 1 11 5 17 14 14 20 -4 5 -2 9 4
9 5 0 13 -9 16 -20 3 -11 11 -20 17 -20 6 0 5 6 -2 16 -11 12 -10 18 4 32 17
16 18 16 11 -8 -5 -19 -4 -21 4 -10 7 10 11 11 11 3 0 -7 5 -13 11 -13 8 0 8
5 -1 15 -10 12 -9 20 5 41 20 30 32 26 15 -6 -6 -12 -9 -24 -7 -27 3 -2 8 5
12 17 5 14 12 19 23 15 13 -5 13 -3 -2 14 -19 21 -14 41 10 41 8 0 13 4 12 9
-2 5 1 9 5 9 5 1 17 10 27 22 11 12 23 19 29 16 5 -3 11 -3 14 1 2 5 2 2 0 -5
-1 -7 2 -10 8 -7 13 8 8 -27 -5 -37 -12 -8 -36 1 -36 14 0 6 7 8 14 5 10 -4
13 -1 9 9 -5 14 -7 14 -22 0 -14 -15 -14 -17 1 -32 13 -13 20 -14 37 -4 12 6
19 15 16 21 -4 5 -1 9 6 9 10 0 10 3 1 12 -15 15 -16 38 -2 38 6 0 20 9 32 20
12 11 28 20 35 20 7 0 13 5 13 11 0 6 6 9 14 6 8 -3 17 1 20 10 4 8 12 13 19
10 8 -3 19 4 26 14 6 11 16 17 21 14 6 -3 10 -1 10 5 0 6 8 13 18 17 9 3 24
12 34 20 12 11 18 12 24 2 5 -8 3 -10 -6 -4 -9 6 -11 4 -5 -5 5 -9 4 -11 -3
-6 -8 4 -10 2 -6 -7 4 -11 -2 -14 -20 -12 -15 2 -24 -2 -23 -8 1 -7 -6 -11
-15 -11 -10 1 -15 -3 -12 -8 9 -14 -17 -29 -40 -22 -12 4 -17 2 -14 -6 5 -16
65 -23 73 -10 4 6 12 7 18 4 7 -4 9 -4 5 1 -4 4 0 14 10 21 9 7 12 14 6 14 -6
0 -19 -9 -29 -20 -10 -11 -24 -20 -32 -20 -7 0 2 14 22 31 l36 32 23 -22 c27
-25 44 -16 19 11 -16 17 -16 20 0 35 9 9 20 13 24 9 4 -4 1 -11 -6 -15 -15
-10 -7 -31 12 -31 9 0 8 3 -1 8 -9 7 -7 15 11 34 22 24 23 27 6 31 -11 3 -16
0 -13 -7 3 -7 -4 -12 -16 -12 -25 0 -25 5 -2 22 24 19 38 17 62 -8 18 -20 20
-20 14 -4 -5 14 -4 17 4 12 7 -4 12 -2 12 4 0 7 -6 10 -13 7 -8 -3 -20 -1 -28
4 -11 7 -9 13 11 28 13 11 27 18 30 16 3 -2 21 12 39 31 19 19 36 32 38 30 3
-3 -10 -18 -28 -34 -33 -30 -34 -30 -15 -51 11 -12 29 -21 40 -20 19 1 19 2
-2 8 l-24 6 32 35 c22 24 30 28 25 15 -5 -16 -4 -17 6 -8 10 10 9 17 -5 32
-21 23 -15 37 19 43 14 3 22 1 18 -5 -6 -10 14 -27 32 -27 6 1 2 5 -7 11 -10
5 -15 16 -12 24 4 8 1 15 -6 15 -6 0 -8 5 -5 10 5 8 12 7 23 -2 13 -11 15 -11
10 2 -3 9 0 24 7 34 13 17 14 17 23 -1 9 -15 13 -16 24 -4 9 10 10 12 1 7 -12
-6 -15 -1 -12 22 1 4 5 6 9 5 4 -1 20 14 35 33 15 19 30 33 33 30 3 -4 -3 -13
-14 -22 -18 -15 -18 -15 3 -5 28 14 82 -7 76 -29 -4 -13 -3 -13 6 0 12 17 5
30 -17 30 -13 0 -12 5 8 20 14 11 21 20 16 20 -5 0 -18 -8 -28 -17 -14 -12
-21 -14 -30 -5 -9 9 -2 20 28 46 21 20 45 35 52 36 7 0 11 4 8 9 -3 5 1 12 10
15 10 4 13 2 8 -7 -4 -6 -3 -9 1 -4 5 4 17 0 27 -10 24 -22 23 -12 -3 18 -19
22 -19 24 -3 36 9 7 21 10 25 7 5 -3 17 0 26 6 17 11 17 11 0 6 -12 -4 -17 -2
-15 6 2 6 14 12 26 13 13 1 28 8 35 15 10 10 7 10 -13 1 -21 -10 -22 -10 -6 1
10 7 28 23 40 36 44 49 104 93 112 81 4 -7 3 -9 -3 -6 -12 7 -9 -41 3 -51 4
-4 5 0 1 9 -7 20 20 62 34 54 5 -4 9 -1 9 4 0 14 -13 14 -27 0 -7 -7 -12 -6
-16 5 -4 10 -1 16 8 16 8 0 15 3 15 8 0 4 9 18 19 32 l19 24 -1 -27 c-2 -19
-6 -26 -17 -22 -8 3 -4 -3 10 -14 14 -11 27 -17 30 -15 2 3 -1 9 -8 13 -10 6
-10 11 3 21 13 11 15 9 16 -11 0 -13 3 -18 6 -11 3 7 2 20 -1 28 -5 13 -9 14
-21 4 -16 -13 -18 -6 -6 24 7 17 8 17 23 2 24 -23 34 -20 12 5 -14 15 -16 24
-7 37 9 15 30 20 97 22 28 1 12 11 -25 15 -25 3 -30 2 -19 -5 9 -6 10 -10 3
-10 -28 0 -20 20 21 53 24 20 46 34 48 31 3 -3 8 2 12 11 4 11 2 14 -7 10 -6
-4 -3 1 8 10 11 9 20 19 20 23 0 4 10 17 23 30 l22 22 10 -22 c7 -18 9 -19 9
-5 1 17 11 21 41 18 12 -2 13 0 1 7 -7 5 -18 16 -23 23 -8 11 -9 10 -5 -3 3
-9 -1 -19 -9 -22 -18 -7 -18 5 1 30 14 18 16 18 29 2 7 -10 17 -18 21 -18 5 0
-2 11 -14 24 -21 22 -21 25 -6 33 9 6 16 13 16 16 -2 17 0 19 14 7 15 -13 21
-35 7 -26 -4 2 -9 -5 -9 -16 -2 -20 -2 -20 14 1 11 17 12 26 4 34 -18 18 -13
29 34 80 24 26 42 47 39 47 -2 0 3 11 12 25 9 14 19 23 22 20 3 -3 11 8 18 25
7 16 18 30 25 30 8 0 8 -4 -1 -15 -7 -8 -8 -15 -4 -15 17 0 35 38 22 46 -7 5
-8 3 -3 -6 5 -9 4 -11 -4 -6 -7 5 -1 20 21 46 29 35 59 56 43 30 -3 -5 -1 -18
5 -27 11 -17 11 -17 6 1 -4 10 1 31 10 45 9 14 11 20 3 13 -19 -18 -33 -15
-14 4 8 9 22 13 30 10 8 -3 15 -1 15 4 0 6 -8 10 -17 10 -13 0 -11 6 10 28 15
16 24 32 20 36 -5 4 3 6 16 4 15 -2 26 3 28 12 3 11 2 11 -4 3 -6 -8 -14 -9
-23 -3 -12 8 -12 10 -1 10 7 0 11 6 7 15 -3 9 3 19 16 26 16 9 19 8 13 -3 -7
-11 -5 -11 6 0 11 10 11 14 1 21 -19 12 20 43 44 35 15 -5 16 -4 5 4 -17 12
-24 42 -10 42 5 0 9 5 9 12 0 7 17 37 39 68 21 30 41 68 45 83 4 15 15 35 26
44 10 9 17 20 14 24 -3 5 4 14 14 20 12 7 17 19 14 31 -6 23 17 51 36 43 12
-4 13 -3 2 10 -8 10 -9 15 -1 15 6 0 11 5 11 11 0 5 -5 7 -10 4 -6 -4 3 13 19
36 16 24 27 49 24 56 -3 7 3 16 12 19 13 5 14 9 3 15 -10 7 -10 9 0 9 6 0 12
7 12 15 0 8 9 24 19 34 11 11 16 21 10 23 -5 2 -3 14 4 28 7 14 14 29 14 35 1
5 10 12 20 16 10 4 12 8 6 8 -10 1 -10 7 -1 26 6 14 15 25 20 25 5 0 8 6 7 13
-4 32 2 39 26 35 13 -3 22 -1 19 3 -3 5 -12 9 -20 9 -8 0 -14 5 -14 10 0 6 8
10 18 10 12 0 14 2 4 8 -14 9 -2 54 16 66 6 3 8 15 5 26 -3 11 -1 20 5 20 5 0
9 6 9 13 -2 19 34 97 43 92 4 -2 8 7 8 21 0 26 19 47 33 38 4 -2 10 0 14 5 3
6 -3 8 -14 6 -14 -3 -19 2 -18 16 1 12 9 19 22 20 16 1 17 2 3 6 -14 3 -16 8
-8 23 6 11 10 23 9 27 -1 4 -1 17 0 28 1 16 3 17 10 6 7 -11 10 -7 13 15 2 17
8 28 16 26 6 -1 12 2 12 8 0 5 -4 10 -10 10 -5 0 -10 5 -10 11 0 16 43 102 55
111 6 5 5 8 -3 8 -9 0 -10 5 -3 18 9 17 18 58 20 90 1 7 5 11 10 7 5 -3 13 -1
16 5 4 6 2 9 -3 8 -6 -2 -10 0 -11 5 -3 22 0 27 12 21 8 -5 8 -2 -2 9 -11 14
-11 20 0 34 10 11 10 14 2 9 -14 -8 -18 6 -5 18 4 4 7 11 8 14 7 71 18 121 24
117 5 -3 7 17 4 45 -2 27 -1 50 4 50 5 0 7 13 4 30 -2 16 -1 38 3 47 3 10 8
49 10 86 2 52 7 72 21 83 14 10 15 13 3 9 -12 -5 -16 2 -17 31 -1 21 3 43 9
50 13 16 12 585 -1 598 -14 14 -12 29 3 20 9 -6 9 -5 0 7 -7 9 -13 62 -15 136
-2 66 -6 119 -11 116 -6 -4 -10 39 -11 124 0 17 -4 29 -8 27 -7 -4 -13 32 -10
57 1 3 -5 26 -13 51 -10 35 -11 49 -2 58 9 10 9 11 0 6 -16 -9 -18 20 -2 29 7
5 4 13 -7 26 -10 11 -15 28 -12 43 4 17 1 23 -9 19 -17 -7 -18 28 0 47 10 12
9 12 -5 2 -14 -11 -17 -8 -24 30 -5 24 -8 52 -8 63 0 11 -6 25 -12 30 -17 14
-29 119 -13 109 8 -4 9 -3 5 5 -4 6 -11 9 -16 6 -4 -3 -11 5 -15 18 -21 63
-33 113 -28 119 2 5 -1 8 -6 8 -6 0 -11 6 -11 13 0 6 -7 25 -15 41 -9 16 -13
36 -10 43 2 8 0 11 -5 8 -6 -3 -10 2 -10 12 0 10 -9 36 -20 58 -11 22 -20 47
-20 56 0 9 -7 22 -15 29 -9 7 -14 15 -11 17 2 3 -7 30 -20 60 -14 31 -23 60
-21 67 2 6 -5 19 -15 30 -10 11 -18 30 -18 42 0 13 -4 26 -10 29 -5 3 -10 13
-10 21 0 8 -9 24 -20 36 -11 12 -20 29 -20 38 0 9 -5 21 -12 28 -7 7 -8 12 -3
12 6 0 6 3 0 8 -5 4 -48 83 -95 176 -47 93 -100 184 -117 202 -18 19 -33 43
-33 54 0 13 -10 24 -26 30 -22 9 -25 15 -22 40 2 16 1 27 -2 25 -4 -3 -29 39
-55 91 -27 53 -54 98 -61 101 -16 6 -68 92 -60 100 2 3 -6 17 -20 32 -14 14
-37 46 -51 71 -15 25 -35 53 -45 64 -10 11 -18 25 -18 31 0 6 -13 19 -30 28
-16 10 -30 24 -30 31 0 8 -20 33 -45 57 -25 24 -45 48 -45 54 0 5 -27 39 -60
74 -33 35 -60 66 -60 70 0 12 -440 443 -440 432 0 -4 -6 1 -13 10 -7 8 -37 33
-67 56 -30 22 -70 54 -88 71 -18 17 -37 32 -42 34 -11 4 -92 72 -146 123 -23
23 -53 46 -66 52 -35 16 -178 130 -172 136 3 3 -2 3 -13 1 -12 -4 -25 4 -40
23 -11 16 -39 35 -62 43 -22 7 -48 21 -57 32 -10 10 -22 18 -28 18 -6 0 -24
11 -41 25 -37 30 -344 183 -385 191 -16 4 -35 13 -41 20 -6 8 -19 14 -28 14
-9 0 -21 4 -27 9 -5 4 -31 14 -59 21 -27 7 -59 19 -70 27 -11 7 -28 13 -38 13
-10 0 -21 8 -25 18 -5 12 -19 17 -47 18 -22 1 -65 8 -95 16 -30 8 -89 23 -130
33 -41 10 -79 22 -85 26 -5 5 -19 9 -31 9 -13 0 -60 10 -106 21 -46 12 -117
27 -158 33 -41 7 -82 15 -90 18 -26 11 -160 27 -325 38 -88 7 -164 16 -169 21
-13 12 -113 11 -121 -1 -3 -5 -17 -10 -30 -10 -13 0 -27 5 -30 10 -8 12 -242
14 -249 1z m-1759 -1035 c0 -7 -7 -13 -16 -11 -9 1 -19 -3 -23 -9 -5 -8 -8 -7
-8 2 0 7 10 17 23 22 12 5 22 9 23 9 0 1 1 -5 1 -13z m-1272 -7946 c-3 -5 1
-10 10 -10 9 0 13 -4 10 -10 -3 -5 1 -10 9 -10 8 0 18 -5 22 -12 4 -6 3 -8 -4
-4 -6 3 -18 -1 -26 -10 -9 -8 -16 -14 -17 -12 0 2 -2 14 -3 27 -2 14 -8 27
-15 29 -13 4 -5 22 10 22 6 0 7 -4 4 -10z m5899 -78 c-11 -9 -25 -26 -31 -36
-7 -12 -13 -15 -17 -7 -8 13 37 61 56 61 8 -1 5 -8 -8 -18z m-5764 -17 c0 -19
-20 -29 -31 -18 -14 14 0 43 17 36 8 -3 14 -11 14 -18z m140 -93 c0 -7 5 -10
12 -6 7 5 8 3 3 -6 -5 -9 -14 -5 -31 14 -29 31 -31 40 -4 24 11 -7 20 -19 20
-26z m5431 -59 c13 -16 12 -17 -3 -4 -17 13 -22 21 -14 21 2 0 10 -8 17 -17z
m-5151 -116 c0 -7 -4 -6 -10 3 -8 13 -10 12 -10 -4 0 -16 -3 -17 -12 -8 -10
10 -10 15 2 22 16 10 30 4 30 -13z m60 -57 c0 -5 -2 -10 -4 -10 -3 0 -8 5 -11
10 -3 6 -1 10 4 10 6 0 11 -4 11 -10z m4674 -15 c-4 -8 -10 -15 -14 -15 -5 0
-11 -8 -14 -18 -8 -23 -41 -26 -43 -3 -1 9 7 23 18 29 13 8 19 9 19 1 0 -5 5
-7 10 -4 6 4 8 11 5 16 -4 5 1 9 9 9 10 0 13 -6 10 -15z m-4573 -9 c5 3 9 1 9
-4 0 -6 8 -9 18 -8 9 0 16 -5 15 -11 -2 -7 2 -13 7 -13 6 0 10 -5 10 -12 0 -9
-3 -9 -12 0 -8 8 -15 9 -25 1 -9 -8 -15 -5 -24 15 -10 20 -15 23 -26 15 -16
-14 -17 3 -1 19 8 8 14 9 16 2 2 -5 8 -8 13 -4z m199 -96 c12 -11 27 -17 31
-14 5 3 9 0 9 -6 0 -6 5 -8 10 -5 6 3 10 1 10 -5 0 -7 7 -9 15 -6 9 3 18 -1
22 -10 9 -24 -5 -29 -27 -9 -11 10 -23 16 -26 12 -3 -3 -15 4 -26 15 -11 11
-26 17 -33 14 -14 -5 -28 17 -18 28 8 8 7 9 33 -14z m3970 -112 c0 -13 -38
-29 -45 -18 -3 5 -4 14 -1 18 6 10 46 10 46 0z m-3550 -88 c0 -5 -2 -10 -4
-10 -3 0 -8 5 -11 10 -3 6 -1 10 4 10 6 0 11 -4 11 -10z m200 -60 c0 -5 -2
-10 -4 -10 -3 0 -8 5 -11 10 -3 6 -1 10 4 10 6 0 11 -4 11 -10z m2776 -16
c-11 -8 -25 -14 -30 -13 -6 0 -5 3 2 6 6 2 9 10 6 15 -4 6 -2 8 4 4 6 -3 14
-1 17 5 4 5 10 7 13 4 4 -4 -2 -13 -12 -21z m-2866 6 c0 -5 -5 -10 -11 -10 -5
0 -7 5 -4 10 3 6 8 10 11 10 2 0 4 -4 4 -10z m300 -27 c0 -17 -19 -37 -27 -29
-4 5 -2 11 5 13 6 3 10 9 6 14 -3 5 0 9 5 9 6 0 11 -3 11 -7z m2570 -1 c0 -5
-11 -14 -25 -20 -28 -13 -35 1 -7 17 21 13 32 14 32 3z m-278 -37 c8 -11 1
-25 -13 -25 -6 0 -8 4 -4 9 3 5 0 13 -6 17 -7 4 -9 3 -5 -4 3 -6 2 -13 -4 -17
-11 -7 -14 18 -4 28 9 8 27 4 36 -8z m-52 -4 c0 -5 -10 -16 -22 -25 -20 -14
-21 -15 -3 -10 16 5 17 4 5 -5 -21 -15 -27 -14 -33 9 -3 11 -2 18 3 15 4 -3
10 2 14 10 6 16 36 21 36 6z m-1966 -27 c3 -8 2 -12 -4 -9 -6 3 -10 10 -10 16
0 14 7 11 14 -7z m136 -14 c0 -5 -4 -10 -10 -10 -5 0 -10 5 -10 10 0 6 5 10
10 10 6 0 10 -4 10 -10z m1550 -22 c0 -4 -9 -12 -20 -18 -11 -6 -20 -9 -20 -6
0 2 -3 11 -6 19 -4 11 1 15 20 13 14 0 26 -4 26 -8z m-1500 -8 c8 -5 11 -12 7
-17 -5 -4 -12 -1 -17 7 -7 11 -10 12 -10 2 0 -7 -5 -10 -10 -7 -11 7 -4 25 8
25 4 0 14 -4 22 -10z"/>
<path d="M7186 532 c-3 -5 1 -9 9 -9 8 0 12 4 9 9 -3 4 -7 8 -9 8 -2 0 -6 -4
-9 -8z"/>
<path d="M2676 518 c3 -4 11 -5 19 -1 21 7 19 12 -4 10 -11 0 -18 -5 -15 -9z"/>
<path d="M76 5983 c-6 -14 -5 -15 5 -6 7 7 10 15 7 18 -3 3 -9 -2 -12 -12z"/>
<path d="M9930 5610 c0 -5 5 -10 11 -10 5 0 7 5 4 10 -3 6 -8 10 -11 10 -2 0
-4 -4 -4 -10z"/>
<path d="M9956 4472 c-3 -5 1 -9 9 -9 8 0 12 4 9 9 -3 4 -7 8 -9 8 -2 0 -6 -4
-9 -8z"/>
<path d="M9953 4435 c0 -8 4 -12 9 -9 5 3 6 10 3 15 -9 13 -12 11 -12 -6z"/>
<path d="M10 4410 c0 -5 5 -10 11 -10 5 0 7 5 4 10 -3 6 -8 10 -11 10 -2 0 -4
-4 -4 -10z"/>
<path d="M10 4351 c0 -6 4 -13 10 -16 6 -3 7 1 4 9 -7 18 -14 21 -14 7z"/>
<path d="M16 4308 c3 -5 10 -6 15 -3 13 9 11 12 -6 12 -8 0 -12 -4 -9 -9z"/>
<path d="M9942 4274 c10 -10 20 -16 22 -13 3 3 -5 11 -17 18 -21 13 -21 12 -5
-5z"/>
<path d="M15 4239 c-4 -6 -5 -12 -2 -15 2 -3 7 2 10 11 7 17 1 20 -8 4z"/>
<path d="M9945 4210 c-3 -6 1 -7 9 -4 18 7 21 14 7 14 -6 0 -13 -4 -16 -10z"/>
<path d="M9910 4116 c0 -2 7 -7 16 -10 8 -3 12 -2 9 4 -6 10 -25 14 -25 6z"/>
<path d="M9930 4086 c0 -2 8 -10 18 -17 15 -13 16 -12 3 4 -13 16 -21 21 -21
13z"/>
<path d="M30 4071 c0 -6 4 -13 10 -16 6 -3 7 1 4 9 -7 18 -14 21 -14 7z"/>
<path d="M9913 4065 c0 -8 4 -12 9 -9 5 3 6 10 3 15 -9 13 -12 11 -12 -6z"/>
<path d="M9910 4032 c0 -5 7 -9 15 -9 8 0 12 4 9 9 -3 4 -9 8 -15 8 -5 0 -9
-4 -9 -8z"/>
<path d="M13 3985 c0 -8 4 -12 9 -9 5 3 6 10 3 15 -9 13 -12 11 -12 -6z"/>
<path d="M40 3996 c0 -2 8 -10 18 -17 15 -13 16 -12 3 4 -13 16 -21 21 -21 13z"/>
<path d="M9913 3945 c0 -8 4 -12 9 -9 4 3 8 9 8 15 0 5 -4 9 -8 9 -5 0 -9 -7
-9 -15z"/>
<path d="M9879 3913 c-5 -31 -5 -73 -1 -68 6 6 12 75 6 75 -2 0 -5 -3 -5 -7z"/>
<path d="M9959 3903 c-13 -16 -12 -17 4 -4 16 13 21 21 13 21 -2 0 -10 -8 -17
-17z"/>
<path d="M73 3897 c0 -8 6 -14 14 -14 9 0 10 4 2 14 -6 7 -12 13 -14 13 -1 0
-2 -6 -2 -13z"/>
<path d="M56 3848 c3 -5 10 -6 15 -3 13 9 11 12 -6 12 -8 0 -12 -4 -9 -9z"/>
<path d="M56 3768 c3 -5 10 -6 15 -3 13 9 11 12 -6 12 -8 0 -12 -4 -9 -9z"/>
<path d="M90 3775 c0 -5 5 -17 10 -25 5 -8 10 -10 10 -5 0 6 -5 17 -10 25 -5
8 -10 11 -10 5z"/>
<path d="M9827 3759 c4 -13 8 -18 11 -10 2 7 -1 18 -6 23 -8 8 -9 4 -5 -13z"/>
<path d="M9855 3759 c-4 -6 -5 -12 -2 -15 2 -3 7 2 10 11 7 17 1 20 -8 4z"/>
<path d="M120 3741 c0 -6 4 -13 10 -16 6 -3 7 1 4 9 -7 18 -14 21 -14 7z"/>
<path d="M42 3728 c-7 -7 -12 -17 -12 -22 0 -6 5 -3 11 7 6 9 15 14 21 11 7
-4 8 -2 4 4 -9 15 -9 15 -24 0z"/>
<path d="M9863 3714 c9 -11 15 -24 12 -27 -3 -4 -2 -5 2 -2 4 3 8 13 9 21 1 9
0 13 -3 10 -4 -3 -13 0 -22 6 -12 10 -12 7 2 -8z"/>
<path d="M115 3692 c3 -3 0 -10 -5 -17 -7 -8 -5 -12 5 -12 8 0 13 3 10 5 -3 3
0 10 5 17 7 8 5 12 -5 12 -8 0 -13 -3 -10 -5z"/>
<path d="M9800 3636 c0 -2 8 -10 18 -17 15 -13 16 -12 3 4 -13 16 -21 21 -21
13z"/>
<path d="M9850 3631 c0 -6 4 -13 10 -16 6 -3 7 1 4 9 -7 18 -14 21 -14 7z"/>
<path d="M153 3615 c0 -8 4 -12 9 -9 4 3 8 9 8 15 0 5 -4 9 -8 9 -5 0 -9 -7
-9 -15z"/>
<path d="M9839 3583 c-13 -16 -12 -17 4 -4 9 7 17 15 17 17 0 8 -8 3 -21 -13z"/>
<path d="M9796 3568 c3 -5 10 -6 15 -3 13 9 11 12 -6 12 -8 0 -12 -4 -9 -9z"/>
<path d="M110 3526 c0 -2 8 -10 18 -17 15 -13 16 -12 3 4 -13 16 -21 21 -21
13z"/>
<path d="M9790 3509 c0 -5 5 -7 10 -4 6 3 10 8 10 11 0 2 -4 4 -10 4 -5 0 -10
-5 -10 -11z"/>
<path d="M9826 3512 c-3 -5 1 -9 9 -9 8 0 12 4 9 9 -3 4 -7 8 -9 8 -2 0 -6 -4
-9 -8z"/>
<path d="M9746 3493 c-6 -14 -5 -15 5 -6 7 7 10 15 7 18 -3 3 -9 -2 -12 -12z"/>
<path d="M188 3453 c7 -3 16 -2 19 1 4 3 -2 6 -13 5 -11 0 -14 -3 -6 -6z"/>
<path d="M9750 3450 c14 -9 13 -11 -9 -14 -5 0 -12 -4 -16 -8 -9 -9 17 -5 33
5 14 9 7 27 -11 27 -7 0 -6 -4 3 -10z"/>
<path d="M9731 3401 c-8 -5 -9 -11 -3 -15 5 -3 12 1 16 9 6 17 6 18 -13 6z"/>
<path d="M9685 3390 c-3 -6 1 -7 9 -4 18 7 21 14 7 14 -6 0 -13 -4 -16 -10z"/>
<path d="M9695 3370 c-3 -6 1 -7 9 -4 18 7 21 14 7 14 -6 0 -13 -4 -16 -10z"/>
<path d="M9735 3361 c-3 -5 -2 -12 3 -15 5 -3 9 1 9 9 0 17 -3 19 -12 6z"/>
<path d="M200 3356 c0 -2 8 -10 18 -17 15 -13 16 -12 3 4 -13 16 -21 21 -21
13z"/>
<path d="M9708 3342 c-3 -11 0 -19 7 -19 7 0 10 8 7 19 -2 10 -6 18 -7 18 -1
0 -5 -8 -7 -18z"/>
<path d="M175 3330 c-3 -5 -1 -10 4 -10 6 0 11 5 11 10 0 6 -2 10 -4 10 -3 0
-8 -4 -11 -10z"/>
<path d="M9668 3303 c7 -3 16 -2 19 1 4 3 -2 6 -13 5 -11 0 -14 -3 -6 -6z"/>
<path d="M176 3292 c-3 -4 4 -9 15 -9 23 -2 25 3 4 10 -8 4 -16 3 -19 -1z"/>
<path d="M230 3285 c8 -11 15 -21 16 -23 1 -1 7 4 13 12 9 11 9 16 0 22 -8 4
-9 3 -5 -4 10 -16 -6 -15 -24 1 -12 10 -12 9 0 -8z"/>
<path d="M9730 3290 c0 -5 5 -10 11 -10 5 0 7 5 4 10 -3 6 -8 10 -11 10 -2 0
-4 -4 -4 -10z"/>
<path d="M9647 3276 c-4 -10 -3 -15 3 -11 6 3 10 1 10 -6 0 -7 3 -10 6 -6 3 3
2 13 -4 22 -8 16 -9 16 -15 1z"/>
<path d="M268 3243 c7 -3 16 -2 19 1 4 3 -2 6 -13 5 -11 0 -14 -3 -6 -6z"/>
<path d="M276 3217 c3 -10 9 -15 12 -12 3 3 0 11 -7 18 -10 9 -11 8 -5 -6z"/>
<path d="M186 3188 c3 -5 10 -6 15 -3 13 9 11 12 -6 12 -8 0 -12 -4 -9 -9z"/>
<path d="M9625 3189 c-4 -6 -5 -12 -2 -15 2 -3 7 2 10 11 7 17 1 20 -8 4z"/>
<path d="M215 3170 c-3 -5 -1 -10 4 -10 6 0 11 5 11 10 0 6 -2 10 -4 10 -3 0
-8 -4 -11 -10z"/>
<path d="M296 3167 c3 -10 9 -15 12 -12 3 3 0 11 -7 18 -10 9 -11 8 -5 -6z"/>
<path d="M9686 3172 c-3 -5 1 -9 9 -9 8 0 12 4 9 9 -3 4 -7 8 -9 8 -2 0 -6 -4
-9 -8z"/>
<path d="M270 3149 c0 -5 5 -7 10 -4 6 3 10 8 10 11 0 2 -4 4 -10 4 -5 0 -10
-5 -10 -11z"/>
<path d="M9614 3148 c-5 -7 -3 -8 6 -3 9 6 12 4 8 -7 -4 -8 0 -15 7 -15 10 0
11 5 4 19 -11 21 -15 22 -25 6z"/>
<path d="M310 3135 c0 -5 5 -17 10 -25 5 -8 10 -10 10 -5 0 6 -5 17 -10 25 -5
8 -10 11 -10 5z"/>
<path d="M246 3108 c3 -5 10 -6 15 -3 13 9 11 12 -6 12 -8 0 -12 -4 -9 -9z"/>
<path d="M330 3080 c-6 -11 -8 -20 -6 -20 3 0 10 9 16 20 6 11 8 20 6 20 -3 0
-10 -9 -16 -20z"/>
<path d="M9596 3084 c-20 -19 -20 -20 2 -20 10 0 18 8 18 18 0 22 -1 22 -20 2z"/>
<path d="M291 3077 c-8 -10 -7 -14 2 -14 8 0 14 6 14 14 0 7 -1 13 -2 13 -2 0
-8 -6 -14 -13z"/>
<path d="M253 3045 c0 -8 4 -12 9 -9 5 3 6 10 3 15 -9 13 -12 11 -12 -6z"/>
<path d="M9550 3050 c0 -5 5 -10 10 -10 6 0 10 5 10 10 0 6 -4 10 -10 10 -5 0
-10 -4 -10 -10z"/>
<path d="M9560 3021 c0 -6 4 -13 10 -16 6 -3 7 1 4 9 -7 18 -14 21 -14 7z"/>
<path d="M334 2989 c0 -13 4 -15 13 -8 7 6 18 7 24 3 7 -4 9 -3 6 3 -12 20
-43 21 -43 2z"/>
<path d="M9596 2997 c3 -10 9 -15 12 -12 3 3 0 11 -7 18 -10 9 -11 8 -5 -6z"/>
<path d="M9635 2999 c-4 -6 -5 -12 -2 -15 2 -3 7 2 10 11 7 17 1 20 -8 4z"/>
<path d="M9540 2989 c0 -5 5 -7 10 -4 6 3 10 8 10 11 0 2 -4 4 -10 4 -5 0 -10
-5 -10 -11z"/>
<path d="M359 2965 c-1 -3 -2 -11 -3 -17 -1 -7 -8 -11 -16 -10 -8 2 -11 0 -7
-4 12 -12 38 -14 30 -1 -4 7 0 8 13 4 18 -7 18 -6 2 6 -10 8 -15 17 -11 20 3
4 3 7 0 7 -4 0 -8 -2 -8 -5z"/>
<path d="M9590 2966 c0 -2 8 -10 18 -17 15 -13 16 -12 3 4 -13 16 -21 21 -21
13z"/>
<path d="M9533 2948 c-4 -7 -1 -8 7 -3 10 6 12 3 7 -11 -7 -18 -6 -18 6 -2 8
10 16 17 18 15 2 -1 3 0 1 2 -6 10 -32 9 -39 -1z"/>
<path d="M396 2923 c-6 -14 -5 -15 5 -6 7 7 10 15 7 18 -3 3 -9 -2 -12 -12z"/>
<path d="M9510 2920 c-11 -7 -11 -10 -2 -10 8 0 10 -5 6 -12 -4 -7 -3 -9 1 -5
7 6 17 37 12 37 -1 0 -9 -5 -17 -10z"/>
<path d="M335 2890 c-2 -3 5 -6 15 -7 11 -1 22 2 24 5 3 4 -4 8 -15 8 -11 0
-22 -3 -24 -6z"/>
<path d="M393 2882 c0 -10 7 -19 14 -19 9 0 10 4 3 12 -5 7 -7 15 -3 18 3 4 1
7 -5 7 -6 0 -10 -8 -9 -18z"/>
<path d="M9570 2889 c0 -5 5 -7 10 -4 6 3 10 8 10 11 0 2 -4 4 -10 4 -5 0 -10
-5 -10 -11z"/>
<path d="M436 2865 c-9 -26 -7 -32 5 -12 6 10 9 21 6 23 -2 3 -7 -2 -11 -11z"/>
<path d="M9490 2870 c0 -5 5 -10 10 -10 6 0 10 5 10 10 0 6 -4 10 -10 10 -5 0
-10 -4 -10 -10z"/>
<path d="M442 2830 c-7 -11 -8 -20 -3 -20 9 0 24 30 18 36 -1 2 -8 -6 -15 -16z"/>
<path d="M9466 2834 c-4 -9 -4 -19 -1 -22 3 -3 5 0 5 7 0 7 4 10 8 7 5 -3 9 1
9 9 0 20 -13 19 -21 -1z"/>
<path d="M9516 2823 c-6 -14 -5 -15 5 -6 7 7 10 15 7 18 -3 3 -9 -2 -12 -12z"/>
<path d="M426 2788 c6 -9 44 -6 44 3 0 4 -11 6 -24 5 -13 0 -22 -4 -20 -8z"/>
<path d="M375 2770 c-3 -5 -1 -10 4 -10 6 0 11 5 11 10 0 6 -2 10 -4 10 -3 0
-8 -4 -11 -10z"/>
<path d="M9510 2769 c0 -5 5 -7 10 -4 6 3 10 8 10 11 0 2 -4 4 -10 4 -5 0 -10
-5 -10 -11z"/>
<path d="M9413 2754 c-3 -8 -2 -19 3 -24 5 -5 9 1 9 16 0 28 -3 30 -12 8z"/>
<path d="M9457 2751 c-4 -17 -3 -21 5 -13 5 5 8 16 6 23 -3 8 -7 3 -11 -10z"/>
<path d="M485 2710 c-3 -6 1 -7 9 -4 18 7 21 14 7 14 -6 0 -13 -4 -16 -10z"/>
<path d="M9470 2711 c0 -6 4 -13 10 -16 6 -3 7 1 4 9 -7 18 -14 21 -14 7z"/>
<path d="M9430 2701 c0 -7 -5 -9 -12 -5 -7 5 -8 3 -3 -5 5 -9 10 -10 18 -2 6
6 8 14 4 18 -4 3 -7 1 -7 -6z"/>
<path d="M9390 2691 c0 -6 4 -13 10 -16 6 -3 7 1 4 9 -7 18 -14 21 -14 7z"/>
<path d="M439 2678 c-5 -18 -6 -38 -1 -34 7 8 12 36 6 36 -2 0 -4 -1 -5 -2z"/>
<path d="M510 2670 c0 -5 5 -10 11 -10 5 0 7 5 4 10 -3 6 -8 10 -11 10 -2 0
-4 -4 -4 -10z"/>
<path d="M529 2636 c-9 -19 -9 -19 4 -4 8 10 16 15 19 12 4 -3 8 -1 12 4 3 5
-2 9 -10 9 -8 0 -20 -10 -25 -21z"/>
<path d="M9375 2650 c3 -5 8 -10 11 -10 2 0 4 5 4 10 0 6 -5 10 -11 10 -5 0
-7 -4 -4 -10z"/>
<path d="M9436 2639 c9 -10 21 -16 25 -13 13 8 11 14 -3 12 -7 -2 -12 2 -11 8
1 6 -5 11 -13 11 -12 0 -11 -4 2 -18z"/>
<path d="M9350 2630 c0 -5 5 -10 10 -10 6 0 10 5 10 10 0 6 -4 10 -10 10 -5 0
-10 -4 -10 -10z"/>
<path d="M9410 2630 c0 -5 5 -10 11 -10 5 0 7 5 4 10 -3 6 -8 10 -11 10 -2 0
-4 -4 -4 -10z"/>
<path d="M535 2611 c-3 -5 0 -13 6 -16 5 -4 8 -14 5 -22 -3 -8 -2 -12 3 -8 5
3 12 -1 14 -7 4 -10 6 -10 6 0 1 7 6 10 13 6 7 -4 8 -3 4 5 -4 6 -11 9 -16 6
-8 -5 -25 23 -22 38 3 10 -6 9 -13 -2z"/>
<path d="M9375 2609 c-4 -6 -4 -13 -1 -17 9 -8 66 -10 60 -1 -2 4 -16 6 -30 4
-18 -2 -24 2 -20 11 6 17 0 19 -9 3z"/>
<path d="M9340 2603 c0 -6 8 -17 18 -24 16 -13 16 -13 2 6 -8 11 -16 22 -17
24 -2 2 -3 0 -3 -6z"/>
<path d="M515 2581 c-3 -5 -2 -12 3 -15 5 -3 9 1 9 9 0 17 -3 19 -12 6z"/>
<path d="M9332 2575 c4 -4 1 -13 -7 -19 -11 -8 -12 -15 -4 -26 9 -13 10 -13 6
0 -2 8 3 20 11 26 13 9 13 12 1 19 -8 5 -11 5 -7 0z"/>
<path d="M600 2550 c0 -5 5 -10 11 -10 5 0 7 -5 3 -12 -4 -7 -3 -8 4 -4 6 4 9
13 5 21 -6 17 -23 20 -23 5z"/>
<path d="M9396 2517 c3 -10 9 -15 12 -12 3 3 0 11 -7 18 -10 9 -11 8 -5 -6z"/>
<path d="M593 2505 c0 -8 4 -12 9 -9 5 3 6 10 3 15 -9 13 -12 11 -12 -6z"/>
<path d="M9277 2496 c-4 -11 -5 -21 -2 -24 3 -3 5 0 5 7 0 7 4 10 9 6 5 -3 13
0 17 6 4 7 3 9 -4 5 -5 -3 -12 -1 -14 6 -3 7 -7 5 -11 -6z"/>
<path d="M560 2490 c-9 -6 -10 -10 -3 -10 6 0 15 5 18 10 8 12 4 12 -15 0z"/>
<path d="M9315 2480 c-3 -6 1 -7 9 -4 18 7 21 14 7 14 -6 0 -13 -4 -16 -10z"/>
<path d="M9255 2452 c-9 -9 -5 -32 5 -32 5 0 6 7 3 17 -4 10 -2 14 5 9 6 -3
13 -3 16 2 5 9 -20 12 -29 4z"/>
<path d="M9307 2453 c7 -2 9 -11 6 -19 -3 -8 1 -14 8 -14 7 0 9 3 6 7 -4 3 -3
11 3 17 6 8 2 12 -13 13 -12 0 -17 -1 -10 -4z"/>
<path d="M9370 2450 c0 -5 5 -10 11 -10 5 0 7 5 4 10 -3 6 -8 10 -11 10 -2 0
-4 -4 -4 -10z"/>
<path d="M620 2439 c0 -5 -4 -7 -10 -4 -14 9 -12 -1 3 -13 10 -8 13 -6 14 9 1
10 0 19 -3 19 -2 0 -4 -5 -4 -11z"/>
<path d="M659 2418 c-8 -27 -5 -36 9 -30 10 4 12 7 4 10 -7 2 -10 8 -6 13 3 5
3 9 0 9 -3 0 -6 -1 -7 -2z"/>
<path d="M699 2418 c0 -2 -2 -13 -3 -26 -3 -27 11 -39 27 -23 9 9 8 11 -4 6
-13 -5 -16 -1 -14 19 2 14 1 26 -1 26 -2 0 -4 -1 -5 -2z"/>
<path d="M9276 2412 c-3 -5 1 -9 9 -9 8 0 12 4 9 9 -3 4 -7 8 -9 8 -2 0 -6 -4
-9 -8z"/>
<path d="M9215 2390 c-3 -5 -1 -10 4 -10 6 0 11 5 11 10 0 6 -2 10 -4 10 -3 0
-8 -4 -11 -10z"/>
<path d="M654 2349 c0 -14 3 -16 16 -6 8 6 16 12 18 13 1 1 -5 4 -15 6 -13 4
-19 0 -19 -13z"/>
<path d="M9231 2354 c0 -11 3 -14 6 -6 3 7 2 16 -1 19 -3 4 -6 -2 -5 -13z"/>
<path d="M9273 2355 c0 -8 4 -15 9 -15 4 0 8 4 8 9 0 6 -4 12 -8 15 -5 3 -9
-1 -9 -9z"/>
<path d="M9310 2350 c0 -5 5 -10 11 -10 5 0 7 5 4 10 -3 6 -8 10 -11 10 -2 0
-4 -4 -4 -10z"/>
<path d="M716 2337 c3 -10 9 -15 12 -12 3 3 0 11 -7 18 -10 9 -11 8 -5 -6z"/>
<path d="M685 2329 c-4 -6 -4 -13 -1 -16 3 -4 6 -1 6 6 0 7 5 9 12 5 7 -4 8
-3 4 4 -9 15 -13 15 -21 1z"/>
<path d="M9214 2332 c3 -5 1 -12 -6 -14 -8 -3 -9 -6 -1 -11 6 -4 13 0 17 8 3
8 0 17 -6 21 -6 4 -8 3 -4 -4z"/>
<path d="M616 2312 c-3 -5 1 -9 9 -9 8 0 12 4 9 9 -3 4 -7 8 -9 8 -2 0 -6 -4
-9 -8z"/>
<path d="M695 2300 c-3 -6 1 -7 9 -4 18 7 21 14 7 14 -6 0 -13 -4 -16 -10z"/>
<path d="M9230 2296 c0 -2 7 -7 16 -10 8 -3 12 -2 9 4 -6 10 -25 14 -25 6z"/>
<path d="M9275 2290 c3 -5 8 -10 11 -10 2 0 4 5 4 10 0 6 -5 10 -11 10 -5 0
-7 -4 -4 -10z"/>
<path d="M9213 2273 c1 -15 5 -19 13 -13 6 6 15 6 19 2 5 -4 5 -1 1 6 -4 7
-11 10 -16 7 -4 -3 -10 1 -13 7 -3 7 -4 3 -4 -9z"/>
<path d="M730 2270 c0 -5 5 -10 10 -10 6 0 10 5 10 10 0 6 -4 10 -10 10 -5 0
-10 -4 -10 -10z"/>
<path d="M9152 2261 c-11 -7 -10 -9 3 -14 11 -5 14 -3 9 5 -5 8 -2 9 10 5 10
-4 15 -3 11 3 -7 12 -16 12 -33 1z"/>
<path d="M756 2252 c-3 -5 4 -16 15 -25 10 -9 19 -12 19 -7 0 6 -7 13 -15 16
-8 4 -12 10 -9 15 3 5 3 9 0 9 -3 0 -7 -4 -10 -8z"/>
<path d="M9136 2225 c4 -8 8 -15 10 -15 2 0 4 7 4 15 0 8 -4 15 -10 15 -5 0
-7 -7 -4 -15z"/>
<path d="M9177 2221 c-10 -14 -10 -14 4 -4 9 7 18 10 21 7 3 -3 8 -1 12 4 9
16 -24 9 -37 -7z"/>
<path d="M9230 2231 c0 -6 4 -13 10 -16 6 -3 7 1 4 9 -7 18 -14 21 -14 7z"/>
<path d="M756 2205 c-9 -26 -7 -32 5 -12 6 10 9 21 6 23 -2 3 -7 -2 -11 -11z"/>
<path d="M790 2190 c0 -5 5 -10 10 -10 6 0 10 5 10 10 0 6 -4 10 -10 10 -5 0
-10 -4 -10 -10z"/>
<path d="M9133 2187 c-4 -6 -1 -7 7 -2 10 6 12 4 7 -8 -4 -10 -2 -14 7 -11 7
3 13 11 13 18 0 15 -25 17 -34 3z"/>
<path d="M773 2168 c1 -7 -4 -12 -11 -10 -8 1 -11 -2 -7 -8 5 -8 11 -8 21 1 7
6 11 15 8 20 -8 13 -14 11 -11 -3z"/>
<path d="M810 2160 c-6 -12 -5 -17 5 -17 7 0 11 7 7 15 -3 10 -1 13 6 8 6 -3
13 -3 16 2 3 5 -2 9 -10 9 -8 0 -19 -8 -24 -17z"/>
<path d="M9114 2173 c4 -7 2 -13 -3 -13 -6 0 -11 -4 -11 -8 0 -5 6 -9 14 -9
15 0 16 21 1 34 -4 4 -5 2 -1 -4z"/>
<path d="M860 2141 c15 -30 30 -35 17 -6 -7 14 -16 25 -20 25 -4 0 -3 -9 3
-19z"/>
<path d="M830 2130 c-9 -6 -10 -10 -3 -10 6 0 15 5 18 10 8 12 4 12 -15 0z"/>
<path d="M9040 2125 c-10 -12 -10 -18 0 -30 15 -18 23 -13 27 15 4 25 -12 34
-27 15z m17 -15 c-1 -12 -5 -16 -10 -11 -5 5 -6 14 -3 20 11 16 15 13 13 -9z"/>
<path d="M705 2110 c-3 -6 1 -7 9 -4 18 7 21 14 7 14 -6 0 -13 -4 -16 -10z"/>
<path d="M845 2110 c-3 -5 -1 -10 4 -10 6 0 11 5 11 10 0 6 -2 10 -4 10 -3 0
-8 -4 -11 -10z"/>
<path d="M9104 2101 c0 -11 5 -17 13 -14 10 4 11 9 2 19 -15 18 -15 18 -15 -5z"/>
<path d="M753 2095 c0 -8 4 -12 9 -9 5 3 6 10 3 15 -9 13 -12 11 -12 -6z"/>
<path d="M824 2082 c0 -19 19 -24 31 -9 3 4 2 5 -2 2 -3 -3 -11 2 -17 11 -10
13 -12 13 -12 -4z"/>
<path d="M870 2090 c0 -5 5 -10 10 -10 6 0 10 5 10 10 0 6 -4 10 -10 10 -5 0
-10 -4 -10 -10z"/>
<path d="M9030 2059 c0 -5 5 -7 10 -4 6 3 10 8 10 11 0 2 -4 4 -10 4 -5 0 -10
-5 -10 -11z"/>
<path d="M9066 2052 c6 -4 10 -15 8 -25 -1 -9 2 -14 8 -11 5 3 7 9 4 12 -3 3
-2 10 4 16 6 8 2 12 -13 13 -12 1 -17 -1 -11 -5z"/>
<path d="M946 2025 c4 -8 11 -15 16 -15 6 0 5 6 -2 15 -7 8 -14 15 -16 15 -2
0 -1 -7 2 -15z"/>
<path d="M9010 2036 c0 -2 7 -7 16 -10 8 -3 12 -2 9 4 -6 10 -25 14 -25 6z"/>
<path d="M9116 2032 c-3 -5 1 -9 9 -9 8 0 12 4 9 9 -3 4 -7 8 -9 8 -2 0 -6 -4
-9 -8z"/>
<path d="M815 2021 c-3 -5 -2 -12 3 -15 5 -3 9 1 9 9 0 17 -3 19 -12 6z"/>
<path d="M875 2009 c-3 -4 2 -6 10 -5 21 3 28 13 10 13 -9 0 -18 -4 -20 -8z"/>
<path d="M8946 2002 c-4 -13 -5 -26 -2 -29 3 -4 6 1 6 10 0 10 3 16 8 16 19
-3 32 2 32 12 0 8 -4 8 -14 0 -11 -9 -15 -9 -18 1 -3 8 -8 3 -12 -10z"/>
<path d="M9000 2016 c0 -2 7 -7 16 -10 8 -3 12 -2 9 4 -6 10 -25 14 -25 6z"/>
<path d="M910 1991 c0 -6 4 -13 10 -16 6 -3 7 1 4 9 -7 18 -14 21 -14 7z"/>
<path d="M9000 1986 c0 -8 4 -17 9 -20 5 -4 7 3 4 14 -6 23 -13 26 -13 6z"/>
<path d="M950 1980 c-13 -8 -12 -10 3 -10 9 0 17 5 17 10 0 12 -1 12 -20 0z"/>
<path d="M8956 1963 c-4 -9 -3 -20 1 -24 4 -4 9 3 9 17 2 28 -1 31 -10 7z"/>
<path d="M9096 1968 c3 -5 10 -6 15 -3 13 9 11 12 -6 12 -8 0 -12 -4 -9 -9z"/>
<path d="M980 1959 c-11 -6 -11 -9 -2 -9 10 0 10 -5 2 -20 -15 -28 -6 -25 14
4 17 27 9 40 -14 25z"/>
<path d="M930 1949 c0 -5 5 -7 10 -4 6 3 10 8 10 11 0 2 -4 4 -10 4 -5 0 -10
-5 -10 -11z"/>
<path d="M8918 1953 c7 -3 16 -2 19 1 4 3 -2 6 -13 5 -11 0 -14 -3 -6 -6z"/>
<path d="M8980 1949 c0 -5 5 -7 10 -4 6 3 10 8 10 11 0 2 -4 4 -10 4 -5 0 -10
-5 -10 -11z"/>
<path d="M8896 1932 c-2 -4 2 -16 10 -27 8 -10 14 -14 14 -9 0 6 -5 15 -12 22
-7 7 -8 12 -2 12 6 0 15 -5 21 -11 8 -8 13 -8 17 0 4 6 6 11 4 12 -29 7 -48 7
-52 1z"/>
<path d="M943 1914 c9 -11 14 -23 11 -26 -3 -3 -1 -8 4 -12 18 -11 8 25 -12
41 -21 18 -21 18 -3 -3z"/>
<path d="M8956 1912 c-3 -5 1 -9 9 -9 8 0 12 4 9 9 -3 4 -7 8 -9 8 -2 0 -6 -4
-9 -8z"/>
<path d="M8864 1895 c-10 -8 -14 -14 -9 -15 15 0 40 18 34 24 -3 3 -14 -1 -25
-9z"/>
<path d="M910 1896 c0 -2 7 -7 16 -10 8 -3 12 -2 9 4 -6 10 -25 14 -25 6z"/>
<path d="M984 1867 c0 -15 6 -23 14 -20 10 4 10 9 0 22 -7 9 -13 17 -14 19 -1
2 -1 -8 0 -21z"/>
<path d="M1028 1873 c6 -2 18 -2 25 0 6 3 1 5 -13 5 -14 0 -19 -2 -12 -5z"/>
<path d="M8875 1870 c-13 -6 -15 -9 -5 -9 8 0 22 4 30 9 18 12 2 12 -25 0z"/>
<path d="M8910 1860 c-9 -6 -10 -10 -3 -10 6 0 15 5 18 10 8 12 4 12 -15 0z"/>
<path d="M1066 1836 c14 -23 44 -26 44 -5 0 14 -20 11 -21 -3 0 -7 -5 -3 -11
10 -6 12 -15 22 -20 22 -5 0 -1 -11 8 -24z"/>
<path d="M1010 1828 c0 -11 12 -10 30 2 12 7 10 9 -8 7 -12 0 -22 -5 -22 -9z"/>
<path d="M8913 1833 c4 -3 1 -13 -6 -22 -11 -14 -10 -14 5 -2 16 12 16 31 1
31 -4 0 -3 -3 0 -7z"/>
<path d="M953 1815 c0 -8 4 -12 9 -9 5 3 6 10 3 15 -9 13 -12 11 -12 -6z"/>
<path d="M1048 1813 c6 -2 9 -10 6 -15 -4 -7 -2 -8 5 -4 13 9 5 26 -12 25 -9
0 -8 -2 1 -6z"/>
<path d="M8853 1804 c-3 -8 -2 -19 3 -24 5 -5 9 1 9 16 0 28 -3 30 -12 8z"/>
<path d="M1103 1803 c-7 -2 -13 -12 -13 -21 1 -15 2 -15 11 1 6 9 15 14 21 11
7 -4 8 -2 4 4 -4 7 -8 12 -9 11 -1 0 -8 -3 -14 -6z"/>
<path d="M8875 1801 c-3 -5 -2 -12 3 -15 5 -3 9 1 9 9 0 17 -3 19 -12 6z"/>
<path d="M8950 1790 c0 -5 5 -10 11 -10 5 0 7 5 4 10 -3 6 -8 10 -11 10 -2 0
-4 -4 -4 -10z"/>
<path d="M955 1769 c-3 -4 2 -6 10 -5 21 3 28 13 10 13 -9 0 -18 -4 -20 -8z"/>
<path d="M1110 1770 c0 -6 7 -10 15 -10 8 0 15 2 15 4 0 2 -7 6 -15 10 -8 3
-15 1 -15 -4z"/>
<path d="M1082 1754 c10 -10 20 -16 22 -13 3 3 -5 11 -17 18 -21 13 -21 12 -5
-5z"/>
<path d="M1140 1750 c-9 -6 -10 -10 -3 -10 6 0 15 5 18 10 8 12 4 12 -15 0z"/>
<path d="M8790 1740 c0 -6 7 -10 15 -10 8 0 15 2 15 4 0 2 -7 6 -15 10 -8 3
-15 1 -15 -4z"/>
<path d="M1156 1728 c-7 -21 -3 -48 6 -48 5 0 5 12 2 28 -6 26 -6 26 30 -11
43 -44 48 -36 6 11 -33 35 -39 38 -44 20z"/>
<path d="M8735 1730 c3 -5 8 -10 11 -10 2 0 4 5 4 10 0 6 -5 10 -11 10 -5 0
-7 -4 -4 -10z"/>
<path d="M8836 1728 c3 -5 10 -6 15 -3 13 9 11 12 -6 12 -8 0 -12 -4 -9 -9z"/>
<path d="M1075 1720 c-4 -6 -11 -7 -17 -4 -7 4 -8 2 -4 -5 6 -9 11 -9 22 0 14
11 18 19 10 19 -3 0 -8 -5 -11 -10z"/>
<path d="M1100 1726 c0 -2 7 -6 15 -10 8 -3 15 -1 15 4 0 6 -7 10 -15 10 -8 0
-15 -2 -15 -4z"/>
<path d="M8713 1715 c0 -8 4 -15 9 -15 4 0 8 4 8 9 0 6 -4 12 -8 15 -5 3 -9
-1 -9 -9z"/>
<path d="M8750 1710 c-13 -8 -12 -10 3 -10 9 0 17 5 17 10 0 12 -1 12 -20 0z"/>
<path d="M8800 1715 c0 -2 6 -8 13 -14 10 -8 14 -7 14 2 0 8 -6 14 -14 14 -7
0 -13 -1 -13 -2z"/>
<path d="M1080 1690 c-9 -6 -10 -10 -3 -10 6 0 15 5 18 10 8 12 4 12 -15 0z"/>
<path d="M8774 1689 c-4 -7 -3 -9 4 -5 6 3 13 -2 15 -11 4 -16 5 -16 6 -1 1
21 -15 32 -25 17z"/>
<path d="M8700 1681 c0 -6 4 -13 10 -16 6 -3 7 1 4 9 -7 18 -14 21 -14 7z"/>
<path d="M8732 1670 c0 -14 2 -19 5 -12 2 6 2 18 0 25 -3 6 -5 1 -5 -13z"/>
<path d="M1113 1664 c0 -10 4 -11 13 -3 8 7 14 6 17 -1 3 -6 5 -6 3 1 -3 17
-33 20 -33 3z"/>
<path d="M1192 1666 c7 -8 15 -12 17 -11 5 6 -10 25 -20 25 -5 0 -4 -6 3 -14z"/>
<path d="M8753 1657 c0 -8 6 -14 14 -14 9 0 10 4 2 14 -6 7 -12 13 -14 13 -1
0 -2 -6 -2 -13z"/>
<path d="M1179 1658 c-6 -22 -5 -39 3 -45 6 -3 8 -1 4 5 -3 5 0 13 6 15 10 4
10 6 0 6 -7 1 -10 6 -7 11 3 6 4 10 1 10 -3 0 -6 -1 -7 -2z"/>
<path d="M1226 1645 c-20 -15 -12 -20 23 -16 7 2 10 -2 6 -8 -3 -6 -1 -11 4
-11 16 0 13 20 -4 26 -8 4 -12 10 -9 15 7 12 2 11 -20 -6z"/>
<path d="M8638 1635 c-30 -26 -39 -47 -11 -24 13 11 17 11 20 2 3 -7 9 -13 15
-13 6 0 6 6 -2 15 -10 12 -10 18 0 30 18 22 9 18 -22 -10z"/>
<path d="M8680 1644 c-11 -12 -11 -17 0 -27 10 -9 11 -9 6 1 -4 6 -4 17 0 24
5 8 10 6 15 -8 6 -16 8 -16 8 -2 1 24 -14 31 -29 12z"/>
<path d="M1099 1618 c-5 -18 -6 -38 -1 -34 7 8 12 36 6 36 -2 0 -4 -1 -5 -2z"/>
<path d="M1205 1609 c-4 -6 -5 -12 -2 -15 2 -3 7 2 10 11 7 17 1 20 -8 4z"/>
<path d="M8676 1583 c-6 -14 -5 -15 5 -6 7 7 10 15 7 18 -3 3 -9 -2 -12 -12z"/>
<path d="M1135 1570 c-3 -5 -1 -10 4 -10 6 0 11 5 11 10 0 6 -2 10 -4 10 -3 0
-8 -4 -11 -10z"/>
<path d="M1190 1576 c0 -2 7 -7 16 -10 8 -3 12 -2 9 4 -6 10 -25 14 -25 6z"/>
<path d="M8774 1572 c4 -3 14 -7 22 -8 9 -1 13 0 10 4 -4 3 -14 7 -22 8 -9 1
-13 0 -10 -4z"/>
<path d="M8554 1559 c-3 -6 1 -18 9 -27 15 -14 17 -14 23 2 3 9 4 20 0 23 -3
4 -6 -1 -6 -11 0 -9 -4 -15 -10 -11 -5 3 -7 12 -3 20 6 17 -3 20 -13 4z"/>
<path d="M8690 1566 c0 -2 8 -10 18 -17 15 -13 16 -12 3 4 -13 16 -21 21 -21
13z"/>
<path d="M1226 1552 c-3 -5 1 -9 9 -9 8 0 12 4 9 9 -3 4 -7 8 -9 8 -2 0 -6 -4
-9 -8z"/>
<path d="M1295 1549 c-11 -16 -1 -19 13 -3 7 8 8 14 3 14 -5 0 -13 -5 -16 -11z"/>
<path d="M8673 1553 c4 -3 1 -13 -6 -22 -11 -14 -10 -14 5 -2 16 12 16 31 1
31 -4 0 -3 -3 0 -7z"/>
<path d="M1313 1523 c0 -12 4 -20 7 -18 4 2 14 -5 23 -16 9 -10 22 -19 29 -19
7 0 2 7 -10 16 -12 8 -19 21 -16 27 4 7 4 9 -1 5 -4 -4 -14 0 -21 10 -12 16
-13 15 -11 -5z"/>
<path d="M8619 1538 c-8 -27 -5 -36 9 -30 15 5 15 4 2 -14 -11 -15 -11 -16 0
-7 20 18 22 43 2 36 -10 -4 -13 -2 -8 5 4 7 5 12 2 12 -3 0 -6 -1 -7 -2z"/>
<path d="M1270 1510 c0 -6 4 -9 9 -6 5 4 12 1 14 -4 3 -6 4 -5 3 2 -3 15 -26
23 -26 8z"/>
<path d="M1360 1514 c0 -5 9 -15 20 -22 23 -14 28 -44 5 -36 -20 8 -19 2 4
-17 17 -15 18 -15 19 11 0 17 -9 37 -24 51 -13 12 -24 18 -24 13z"/>
<path d="M1215 1490 c3 -5 8 -10 11 -10 2 0 4 5 4 10 0 6 -5 10 -11 10 -5 0
-7 -4 -4 -10z"/>
<path d="M8574 1489 c-3 -6 -3 -13 0 -16 3 -4 6 -1 6 5 0 6 7 9 15 6 8 -4 15
-4 15 -1 0 11 -30 16 -36 6z"/>
<path d="M1316 1477 c3 -10 9 -15 12 -12 3 3 0 11 -7 18 -10 9 -11 8 -5 -6z"/>
<path d="M1420 1451 c0 -5 7 -12 16 -15 14 -5 15 -4 4 9 -14 17 -20 19 -20 6z"/>
<path d="M8556 1445 c-9 -26 -7 -32 5 -12 6 10 9 21 6 23 -2 3 -7 -2 -11 -11z"/>
<path d="M1350 1441 c0 -9 30 -24 36 -18 2 1 -6 8 -16 15 -11 7 -20 8 -20 3z"/>
<path d="M8573 1415 c0 -8 4 -12 9 -9 5 3 6 10 3 15 -9 13 -12 11 -12 -6z"/>
<path d="M1419 1418 c0 -2 -2 -14 -5 -28 -3 -18 -2 -21 5 -10 5 8 7 18 5 22
-8 13 10 9 33 -7 17 -12 23 -13 29 -3 4 7 4 10 -1 6 -4 -4 -17 -1 -29 7 -19
14 -35 19 -37 13z"/>
<path d="M8408 1403 c-8 -10 -15 -26 -15 -35 0 -13 4 -15 19 -7 22 12 24 24 3
15 -20 -7 -19 3 2 26 9 10 14 18 11 18 -3 0 -12 -8 -20 -17z"/>
<path d="M8494 1412 c3 -6 -3 -12 -16 -15 l-23 -4 23 -2 c16 -1 21 -5 16 -13
-4 -7 -3 -9 1 -5 13 12 15 36 3 44 -6 3 -8 1 -4 -5z"/>
<path d="M1386 1393 c-6 -14 -5 -15 5 -6 7 7 10 15 7 18 -3 3 -9 -2 -12 -12z"/>
<path d="M1340 1396 c0 -2 8 -10 18 -17 15 -13 16 -12 3 4 -13 16 -21 21 -21
13z"/>
<path d="M1430 1370 c0 -5 8 -7 18 -3 14 5 15 3 5 -8 -7 -7 -13 -17 -13 -23 0
-5 6 -2 13 9 10 12 16 14 21 7 4 -7 12 -12 18 -12 6 0 -1 9 -15 20 -27 22 -47
26 -47 10z"/>
<path d="M1490 1376 c0 -10 17 -25 62 -60 21 -16 35 -33 32 -38 -4 -6 -10 -5
-16 3 -6 10 -7 7 -3 -10 5 -16 4 -21 -4 -17 -6 4 -11 2 -11 -4 0 -7 7 -10 15
-7 8 4 17 2 20 -3 3 -5 13 -6 22 -3 11 4 14 2 9 -5 -3 -6 3 -16 14 -22 13 -7
20 -7 20 0 0 5 -7 10 -16 10 -8 0 -13 4 -9 9 7 12 -29 33 -40 23 -4 -4 -5 0
-3 8 3 8 12 14 19 12 8 -2 -6 16 -31 40 -58 55 -80 72 -80 64z"/>
<path d="M8353 1349 c-10 -18 -28 -43 -40 -56 -13 -13 -23 -28 -23 -34 0 -6
-4 -8 -9 -4 -15 9 -23 -13 -11 -32 9 -15 10 -14 4 6 -4 15 -2 21 4 17 6 -4 16
2 22 13 6 11 16 19 23 17 6 -1 9 -1 5 1 -8 5 20 53 37 65 6 5 6 8 0 8 -5 0 -3
4 5 10 8 5 11 12 8 16 -4 4 -15 -8 -25 -27z"/>
<path d="M8420 1350 c-9 -6 -10 -10 -3 -10 6 0 15 5 18 10 8 12 4 12 -15 0z"/>
<path d="M8392 1326 c7 -8 15 -12 17 -11 5 6 -10 25 -20 25 -5 0 -4 -6 3 -14z"/>
<path d="M8474 1324 c1 -8 4 -15 7 -16 2 -2 3 -1 2 1 -2 2 2 9 7 16 7 8 5 12
-4 12 -8 0 -13 -6 -12 -13z"/>
<path d="M8533 1319 c-2 -23 3 -25 10 -4 4 8 3 16 -1 19 -4 3 -9 -4 -9 -15z"/>
<path d="M1475 1320 c-3 -5 -2 -18 4 -27 7 -14 9 -12 8 10 -2 30 -3 31 -12 17z"/>
<path d="M1502 1310 c0 -14 2 -19 5 -12 2 6 2 18 0 25 -3 6 -5 1 -5 -13z"/>
<path d="M8361 1325 c-2 -28 41 -55 54 -35 3 5 -4 7 -16 5 -15 -3 -19 0 -15
11 3 8 2 13 -3 9 -5 -3 -12 1 -14 7 -3 7 -6 9 -6 3z"/>
<path d="M1375 1310 c-3 -5 -1 -10 4 -10 6 0 11 5 11 10 0 6 -2 10 -4 10 -3 0
-8 -4 -11 -10z"/>
<path d="M1530 1302 c6 -13 14 -21 18 -18 3 4 -2 14 -12 24 -18 16 -18 16 -6
-6z"/>
<path d="M1416 1288 c3 -5 10 -6 15 -3 13 9 11 12 -6 12 -8 0 -12 -4 -9 -9z"/>
<path d="M8353 1273 c0 -15 2 -22 4 -15 4 10 8 10 21 0 12 -9 11 -5 -3 12 -11
14 -20 26 -21 28 -1 2 -1 -10 -1 -25z"/>
<path d="M8453 1275 c0 -8 4 -15 9 -15 4 0 8 4 8 9 0 6 -4 12 -8 15 -5 3 -9
-1 -9 -9z"/>
<path d="M1496 1263 c-6 -14 -5 -15 5 -6 7 7 10 15 7 18 -3 3 -9 -2 -12 -12z"/>
<path d="M1520 1270 c0 -5 5 -10 11 -10 5 0 7 5 4 10 -3 6 -8 10 -11 10 -2 0
-4 -4 -4 -10z"/>
<path d="M8419 1263 c-13 -16 -12 -17 4 -4 9 7 17 15 17 17 0 8 -8 3 -21 -13z"/>
<path d="M8224 1252 c-6 -4 -3 -13 8 -24 17 -17 18 -17 15 2 -4 25 -10 31 -23
22z"/>
<path d="M1653 1233 c10 -11 15 -27 11 -37 -4 -10 -1 -16 7 -16 7 0 9 3 6 7
-4 3 -3 11 2 17 6 7 0 18 -17 30 l-27 20 18 -21z"/>
<path d="M1455 1230 c-3 -5 -1 -10 4 -10 6 0 11 5 11 10 0 6 -2 10 -4 10 -3 0
-8 -4 -11 -10z"/>
<path d="M1513 1226 c1 -6 -5 -9 -13 -8 -8 2 -11 0 -7 -4 4 -4 15 -9 23 -10 9
-1 13 0 10 3 -3 4 -1 11 4 18 7 8 5 12 -5 12 -7 0 -13 -5 -12 -11z"/>
<path d="M8303 1234 c8 -8 77 -12 81 -5 2 3 -16 7 -41 8 -24 0 -42 -1 -40 -3z"/>
<path d="M1547 1216 c-4 -10 -1 -13 8 -9 8 3 12 9 9 14 -7 12 -11 11 -17 -5z"/>
<path d="M8435 1220 c-4 -6 -11 -7 -17 -4 -7 4 -8 2 -4 -5 6 -9 11 -9 22 0 14
11 18 19 10 19 -3 0 -8 -5 -11 -10z"/>
<path d="M1597 1203 c-12 -11 -8 -23 7 -23 8 0 18 4 21 10 4 6 -1 7 -11 3 -12
-4 -15 -3 -10 5 8 13 3 16 -7 5z"/>
<path d="M8190 1190 c0 -5 5 -10 10 -10 6 0 10 5 10 10 0 6 -4 10 -10 10 -5 0
-10 -4 -10 -10z"/>
<path d="M8250 1190 c0 -5 5 -10 10 -10 6 0 10 5 10 10 0 6 -4 10 -10 10 -5 0
-10 -4 -10 -10z"/>
<path d="M8123 1160 c-18 -16 -33 -33 -33 -37 0 -3 11 4 25 17 20 18 28 21 37
12 7 -7 16 -12 22 -12 5 0 1 6 -10 14 -10 8 -16 17 -12 21 11 11 47 -27 41
-44 -4 -14 -3 -14 6 -1 7 11 5 20 -11 37 -12 13 -24 23 -27 23 -3 0 -21 -14
-38 -30z"/>
<path d="M1630 1169 c0 -5 5 -7 10 -4 6 3 13 -1 16 -9 5 -12 9 -13 25 -3 10 6
19 16 19 21 0 4 -7 3 -15 -4 -12 -10 -19 -10 -27 -2 -15 15 -28 15 -28 1z"/>
<path d="M8215 1171 c-3 -5 0 -13 6 -17 8 -4 9 -3 5 4 -12 20 5 13 25 -10 l20
-23 -17 28 c-17 28 -29 34 -39 18z"/>
<path d="M8306 1168 c3 -5 10 -6 15 -3 13 9 11 12 -6 12 -8 0 -12 -4 -9 -9z"/>
<path d="M1640 1141 c0 -6 4 -13 10 -16 6 -3 7 1 4 9 -7 18 -14 21 -14 7z"/>
<path d="M1674 1119 c-3 -6 0 -18 9 -26 11 -12 16 -12 22 -2 5 8 4 10 -3 5
-11 -6 -16 6 -13 27 2 11 -7 9 -15 -4z"/>
<path d="M1520 1110 c-9 -6 -10 -10 -3 -10 6 0 15 5 18 10 8 12 4 12 -15 0z"/>
<path d="M1575 1110 c-3 -5 -1 -10 4 -10 6 0 11 5 11 10 0 6 -2 10 -4 10 -3 0
-8 -4 -11 -10z"/>
<path d="M1759 1113 c-6 -47 -6 -74 2 -62 5 8 6 23 2 34 -5 17 -4 18 11 6 9
-7 16 -10 16 -7 0 11 -30 39 -31 29z"/>
<path d="M1799 1107 c12 -15 11 -21 -9 -42 -13 -14 -20 -25 -16 -25 5 0 -2 -8
-14 -18 -18 -14 -19 -19 -7 -19 9 0 13 5 10 10 -4 6 1 8 11 4 10 -4 15 -3 11
3 -3 6 0 10 7 10 10 0 10 2 -1 9 -10 7 -10 10 -1 16 7 4 16 2 20 -5 5 -7 7 0
6 18 -1 17 -8 37 -16 44 -12 11 -12 11 -1 -5z"/>
<path d="M8150 1110 c0 -5 7 -7 15 -4 8 4 15 8 15 10 0 2 -7 4 -15 4 -8 0 -15
-4 -15 -10z"/>
<path d="M8196 1083 c-6 -14 -5 -15 5 -6 7 7 10 15 7 18 -3 3 -9 -2 -12 -12z"/>
<path d="M8037 1073 c-23 -12 -26 -17 -16 -29 7 -8 22 -20 33 -25 13 -6 10 -1
-7 12 l-28 21 27 14 c36 19 40 18 19 -6 -10 -11 -15 -20 -10 -20 9 0 34 31 35
43 0 11 -21 7 -53 -10z"/>
<path d="M1710 1072 c0 -5 7 -9 15 -9 8 0 15 4 15 9 0 4 -7 8 -15 8 -8 0 -15
-4 -15 -8z"/>
<path d="M1655 1050 c3 -5 8 -10 11 -10 2 0 4 5 4 10 0 6 -5 10 -11 10 -5 0
-7 -4 -4 -10z"/>
<path d="M8096 1047 c3 -10 9 -15 12 -12 3 3 0 11 -7 18 -10 9 -11 8 -5 -6z"/>
<path d="M8187 1049 c7 -7 15 -10 18 -7 3 3 -2 9 -12 12 -14 6 -15 5 -6 -5z"/>
<path d="M1693 1035 c0 -8 3 -13 5 -10 3 3 12 -1 21 -7 10 -8 9 -4 -3 10 -23
26 -23 26 -23 7z"/>
<path d="M8131 1034 c0 -11 3 -14 6 -6 3 7 2 16 -1 19 -3 4 -6 -2 -5 -13z"/>
<path d="M1903 1004 c-4 -11 -13 -14 -32 -9 -19 4 -22 3 -11 -5 23 -15 38 -12
50 10 6 11 8 20 5 20 -3 0 -8 -7 -12 -16z"/>
<path d="M8005 1010 c-3 -5 -2 -10 4 -10 5 0 13 5 16 10 3 6 2 10 -4 10 -5 0
-13 -4 -16 -10z"/>
<path d="M8079 1013 c-5 -24 -4 -72 0 -68 6 6 10 75 5 75 -2 0 -5 -3 -5 -7z"/>
<path d="M7963 990 c-3 -11 -9 -17 -14 -14 -5 3 -9 0 -9 -5 0 -18 20 -12 27 7
4 9 11 20 17 24 7 5 6 8 -2 8 -8 0 -16 -9 -19 -20z"/>
<path d="M1790 988 c0 -9 7 -19 16 -22 15 -6 15 -4 3 11 -7 10 -15 20 -16 22
-2 2 -3 -3 -3 -11z"/>
<path d="M8116 983 c-6 -14 -5 -15 5 -6 7 7 10 15 7 18 -3 3 -9 -2 -12 -12z"/>
<path d="M8153 985 c0 -8 4 -12 9 -9 5 3 6 10 3 15 -9 13 -12 11 -12 -6z"/>
<path d="M7990 980 c0 -6 7 -10 15 -10 8 0 15 2 15 4 0 2 -7 6 -15 10 -8 3
-15 1 -15 -4z"/>
<path d="M1835 971 c-3 -7 0 -8 9 -5 11 4 14 0 11 -15 -2 -12 0 -19 5 -16 11
7 6 38 -7 42 -6 2 -14 -1 -18 -6z"/>
<path d="M8030 976 c0 -2 7 -7 16 -10 8 -3 12 -2 9 4 -6 10 -25 14 -25 6z"/>
<path d="M1892 946 c7 -8 15 -12 17 -11 5 6 -10 25 -20 25 -5 0 -4 -6 3 -14z"/>
<path d="M7876 949 c2 -5 18 -18 34 -29 22 -16 28 -17 24 -6 -3 8 -14 18 -25
21 -11 4 -17 10 -15 14 3 4 -1 8 -9 8 -8 0 -12 -4 -9 -8z"/>
<path d="M7970 950 c0 -5 5 -10 10 -10 6 0 10 5 10 10 0 6 -4 10 -10 10 -5 0
-10 -4 -10 -10z"/>
<path d="M8020 950 c8 -5 20 -10 25 -10 6 0 3 5 -5 10 -8 5 -19 10 -25 10 -5
0 -3 -5 5 -10z"/>
<path d="M1876 925 c-3 -9 -11 -13 -17 -9 -8 5 -9 3 -4 -5 6 -10 11 -9 23 3 9
8 13 18 10 21 -3 3 -8 -1 -12 -10z"/>
<path d="M8000 930 c-9 -6 -10 -10 -3 -10 6 0 15 5 18 10 8 12 4 12 -15 0z"/>
<path d="M2018 917 c-7 -8 -20 -16 -27 -18 -8 -3 -15 -13 -17 -22 -1 -10 2
-14 9 -10 6 4 8 0 4 -10 -4 -12 -1 -15 15 -12 16 4 19 0 15 -17 -4 -15 -3 -18
5 -10 12 12 3 46 -10 38 -4 -2 -14 5 -21 16 -11 17 -11 20 1 16 7 -3 21 5 31
18 19 26 17 32 -5 11z"/>
<path d="M1815 889 c-3 -4 2 -6 10 -5 21 3 28 13 10 13 -9 0 -18 -4 -20 -8z"/>
<path d="M7897 893 c-9 -8 12 -33 27 -33 6 0 3 5 -8 11 -15 9 -16 13 -5 20 8
5 9 9 3 9 -6 0 -14 -3 -17 -7z"/>
<path d="M1926 873 c-6 -14 -5 -15 5 -6 7 7 10 15 7 18 -3 3 -9 -2 -12 -12z"/>
<path d="M7976 877 c3 -10 9 -15 12 -12 3 3 0 11 -7 18 -10 9 -11 8 -5 -6z"/>
<path d="M7748 866 c-15 -11 -14 -13 13 -13 16 0 26 3 22 6 -4 4 -10 9 -13 13
-3 3 -13 1 -22 -6z"/>
<path d="M7855 870 c-3 -5 -2 -10 4 -10 5 0 13 5 16 10 3 6 2 10 -4 10 -5 0
-13 -4 -16 -10z"/>
<path d="M1950 851 c0 -6 4 -13 10 -16 6 -3 7 1 4 9 -7 18 -14 21 -14 7z"/>
<path d="M2129 853 c-3 -32 -10 -49 -25 -60 -10 -7 -13 -13 -7 -13 6 0 16 6
22 14 13 15 25 66 16 66 -3 0 -5 -3 -6 -7z"/>
<path d="M7876 852 c-3 -5 1 -9 9 -9 8 0 12 4 9 9 -3 4 -7 8 -9 8 -2 0 -6 -4
-9 -8z"/>
<path d="M7950 849 c0 -5 5 -7 10 -4 6 3 10 8 10 11 0 2 -4 4 -10 4 -5 0 -10
-5 -10 -11z"/>
<path d="M2075 840 c3 -5 8 -10 11 -10 2 0 4 5 4 10 0 6 -5 10 -11 10 -5 0 -7
-4 -4 -10z"/>
<path d="M2150 840 c0 -5 5 -10 10 -10 6 0 10 5 10 10 0 6 -4 10 -10 10 -5 0
-10 -4 -10 -10z"/>
<path d="M7788 833 c7 -3 16 -2 19 1 4 3 -2 6 -13 5 -11 0 -14 -3 -6 -6z"/>
<path d="M2097 823 c-4 -3 -7 -11 -7 -17 0 -6 5 -5 12 2 6 6 9 14 7 17 -3 3
-9 2 -12 -2z"/>
<path d="M1935 810 c3 -5 8 -10 11 -10 2 0 4 5 4 10 0 6 -5 10 -11 10 -5 0 -7
-4 -4 -10z"/>
<path d="M2153 814 c7 -7 -22 -39 -43 -47 -12 -4 -12 -6 2 -6 17 -1 58 35 58
51 0 4 -5 8 -12 8 -6 0 -9 -3 -5 -6z"/>
<path d="M7773 807 c-3 -5 -2 -11 1 -14 3 -4 6 -1 6 6 0 7 4 10 8 7 4 -2 14
-1 22 4 11 7 9 9 -8 7 -13 -1 -26 -5 -29 -10z"/>
<path d="M7860 815 c0 -2 6 -8 13 -14 10 -8 14 -7 14 2 0 8 -6 14 -14 14 -7 0
-13 -1 -13 -2z"/>
<path d="M2035 799 c-4 -6 -5 -12 -2 -15 2 -3 7 2 10 11 7 17 1 20 -8 4z"/>
<path d="M7730 780 c9 -16 40 -19 40 -3 0 3 -7 3 -15 -1 -9 -3 -15 0 -15 9 0
8 -5 15 -10 15 -7 0 -7 -6 0 -20z"/>
<path d="M7796 777 c3 -10 9 -15 12 -12 3 3 0 11 -7 18 -10 9 -11 8 -5 -6z"/>
<path d="M2156 765 c-9 -26 -7 -32 5 -12 6 10 9 21 6 23 -2 3 -7 -2 -11 -11z"/>
<path d="M7713 756 c0 -14 6 -27 14 -30 9 -4 11 -2 6 7 -4 6 -8 18 -9 25 -4
25 -11 23 -11 -2z"/>
<path d="M7850 769 c0 -5 5 -7 10 -4 6 3 10 8 10 11 0 2 -4 4 -10 4 -5 0 -10
-5 -10 -11z"/>
<path d="M7895 770 c3 -5 8 -10 11 -10 2 0 4 5 4 10 0 6 -5 10 -11 10 -5 0 -7
-4 -4 -10z"/>
<path d="M7769 753 c-13 -16 -12 -17 4 -4 9 7 17 15 17 17 0 8 -8 3 -21 -13z"/>
<path d="M1955 750 c3 -5 8 -10 11 -10 2 0 4 5 4 10 0 6 -5 10 -11 10 -5 0 -7
-4 -4 -10z"/>
<path d="M2270 743 c0 -7 5 -15 10 -18 6 -3 10 -11 10 -17 0 -6 -9 -3 -20 7
-11 10 -22 16 -24 14 -2 -2 6 -12 19 -21 20 -15 26 -16 37 -4 11 11 18 11 31
1 19 -14 13 -27 -9 -18 -8 3 -14 0 -14 -6 0 -6 5 -10 11 -8 6 1 14 -4 16 -11
3 -8 -2 -10 -14 -6 -14 5 -15 4 -3 -4 17 -13 33 -5 26 14 -3 7 -1 16 4 19 5 3
11 -3 13 -12 3 -10 4 -5 4 10 -1 16 -8 34 -16 40 -12 10 -13 9 -7 -2 6 -9 5
-12 -5 -9 -8 3 -13 11 -11 18 2 10 -1 10 -14 0 -14 -12 -18 -12 -30 5 -8 10
-14 14 -14 8z"/>
<path d="M7813 735 c0 -8 4 -12 9 -9 5 3 6 10 3 15 -9 13 -12 11 -12 -6z"/>
<path d="M2135 720 c-4 -6 -12 -7 -18 -4 -7 4 -8 3 -4 -1 13 -15 34 -14 34 1
0 17 -4 18 -12 4z"/>
<path d="M2166 713 c-6 -14 -5 -15 5 -6 7 7 10 15 7 18 -3 3 -9 -2 -12 -12z"/>
<path d="M7633 713 c4 -3 0 -11 -8 -17 -11 -8 -12 -15 -4 -26 9 -13 10 -13 6
2 -3 9 1 19 9 22 17 6 19 26 2 26 -6 0 -8 -3 -5 -7z"/>
<path d="M7684 712 c4 -3 14 -7 22 -8 9 -1 13 0 10 4 -4 3 -14 7 -22 8 -9 1
-13 0 -10 -4z"/>
<path d="M2227 696 c-4 -10 0 -12 15 -8 16 4 19 2 13 -8 -5 -9 -4 -11 3 -6 16
10 15 14 -7 25 -14 8 -20 7 -24 -3z"/>
<path d="M2190 690 c0 -5 5 -10 11 -10 5 0 7 5 4 10 -3 6 -8 10 -11 10 -2 0
-4 -4 -4 -10z"/>
<path d="M7500 690 c0 -5 -6 -7 -13 -4 -15 5 -98 -47 -91 -58 3 -4 10 -8 15
-8 6 0 7 5 4 10 -3 6 -2 10 2 10 16 0 35 -42 24 -53 -6 -6 -11 -16 -11 -21 0
-6 7 0 16 12 14 20 14 24 0 44 -9 12 -16 25 -16 29 0 14 40 16 59 2 12 -8 21
-10 21 -4 0 6 -5 11 -11 11 -5 0 -7 5 -4 10 4 6 11 8 16 5 5 -3 6 1 3 9 -7 18
-14 21 -14 6z"/>
<path d="M7656 692 c-3 -5 1 -9 9 -9 8 0 12 4 9 9 -3 4 -7 8 -9 8 -2 0 -6 -4
-9 -8z"/>
<path d="M2394 677 c-8 -9 -7 -16 1 -24 10 -9 13 -6 13 13 0 13 -1 24 -2 24 0
-1 -6 -6 -12 -13z"/>
<path d="M7590 681 c0 -6 4 -13 10 -16 6 -3 7 1 4 9 -7 18 -14 21 -14 7z"/>
<path d="M2280 670 c-9 -6 -10 -10 -3 -10 6 0 15 5 18 10 8 12 4 12 -15 0z"/>
<path d="M7527 665 c-4 -8 -1 -17 6 -21 7 -4 9 -4 5 1 -4 4 -3 14 3 22 7 8 8
13 1 13 -5 0 -12 -7 -15 -15z"/>
<path d="M7560 665 c-7 -8 -9 -15 -5 -15 4 0 1 -8 -6 -17 -13 -16 -12 -17 4
-4 9 8 15 16 12 19 -3 3 0 11 6 19 6 7 9 13 6 13 -2 0 -10 -7 -17 -15z"/>
<path d="M7755 659 c-4 -6 -5 -12 -2 -15 2 -3 7 2 10 11 7 17 1 20 -8 4z"/>
<path d="M2291 634 c0 -11 3 -14 6 -6 3 7 2 16 -1 19 -3 4 -6 -2 -5 -13z"/>
<path d="M2370 639 c0 -5 5 -7 10 -4 6 3 10 8 10 11 0 2 -4 4 -10 4 -5 0 -10
-5 -10 -11z"/>
<path d="M7458 643 c6 -2 10 -9 6 -14 -3 -5 -1 -9 5 -9 17 0 21 18 5 24 -9 3
-19 6 -22 5 -4 0 -1 -3 6 -6z"/>
<path d="M7655 630 c2 -27 10 -33 12 -10 1 11 -2 22 -6 24 -4 3 -7 -4 -6 -14z"/>
<path d="M2215 630 c3 -5 8 -10 11 -10 2 0 4 5 4 10 0 6 -5 10 -11 10 -5 0 -7
-4 -4 -10z"/>
<path d="M2345 630 c-3 -5 -1 -10 4 -10 6 0 11 5 11 10 0 6 -2 10 -4 10 -3 0
-8 -4 -11 -10z"/>
<path d="M7510 621 c0 -5 7 -11 14 -14 10 -4 13 -1 9 9 -6 15 -23 19 -23 5z"/>
<path d="M7560 610 c-9 -6 -10 -10 -3 -10 6 0 15 5 18 10 8 12 4 12 -15 0z"/>
<path d="M2273 595 c0 -8 4 -12 9 -9 5 3 6 10 3 15 -9 13 -12 11 -12 -6z"/>
<path d="M7414 601 c4 -5 1 -12 -4 -14 -6 -3 -5 -4 2 -3 15 3 23 26 8 26 -6 0
-9 -4 -6 -9z"/>
<path d="M2306 592 c-3 -5 1 -9 9 -9 8 0 15 4 15 9 0 4 -4 8 -9 8 -6 0 -12 -4
-15 -8z"/>
<path d="M2370 589 c0 -8 47 -5 55 3 3 3 -8 5 -25 5 -16 0 -30 -4 -30 -8z"/>
<path d="M7294 583 c4 -7 2 -21 -3 -30 -7 -13 -10 -14 -11 -4 0 8 -3 12 -6 8
-10 -10 6 -26 21 -21 8 4 12 10 9 15 -3 5 -1 9 5 9 5 0 12 -6 14 -12 3 -8 6
-8 6 -2 1 6 -9 19 -21 30 -12 10 -18 13 -14 7z"/>
<path d="M7450 560 c-6 -11 -8 -20 -6 -20 3 0 10 9 16 20 6 11 8 20 6 20 -3 0
-10 -9 -16 -20z"/>
<path d="M7479 563 c-13 -16 -12 -17 4 -4 9 7 17 15 17 17 0 8 -8 3 -21 -13z"/>
<path d="M7390 561 c0 -7 -4 -9 -10 -6 -6 4 -7 -1 -3 -11 6 -15 7 -15 15 1 6
9 7 19 4 22 -3 4 -6 1 -6 -6z"/>
<path d="M2413 545 c0 -8 4 -12 9 -9 4 3 8 9 8 15 0 5 -4 9 -8 9 -5 0 -9 -7
-9 -15z"/>
<path d="M2465 550 c-3 -6 1 -7 9 -4 18 7 21 14 7 14 -6 0 -13 -4 -16 -10z"/>
<path d="M2333 535 c0 -8 4 -12 9 -9 5 3 6 10 3 15 -9 13 -12 11 -12 -6z"/>
<path d="M2440 541 c0 -6 4 -13 10 -16 6 -3 7 1 4 9 -7 18 -14 21 -14 7z"/>
<path d="M2475 530 c-3 -5 -1 -10 4 -10 6 0 11 5 11 10 0 6 -2 10 -4 10 -3 0
-8 -4 -11 -10z"/>
<path d="M7339 538 c-6 -21 -5 -37 2 -32 5 3 6 10 3 16 -5 7 -1 9 9 5 10 -3
17 -2 17 3 0 8 -28 15 -31 8z"/>
<path d="M7310 521 c0 -7 -4 -9 -10 -6 -6 4 -7 -1 -3 -11 6 -15 7 -15 15 1 6
9 7 19 4 22 -3 4 -6 1 -6 -6z"/>
<path d="M2496 503 c-6 -14 -5 -15 5 -6 7 7 10 15 7 18 -3 3 -9 -2 -12 -12z"/>
<path d="M2590 505 c0 -8 2 -15 4 -15 2 0 6 7 10 15 3 8 1 15 -4 15 -6 0 -10
-7 -10 -15z"/>
<path d="M7390 505 c5 -7 6 -16 2 -21 -4 -5 -3 -5 2 -1 15 12 15 34 0 34 -9 0
-11 -4 -4 -12z"/>
<path d="M7254 488 c-4 -5 -3 -12 0 -15 3 -4 6 -1 6 5 0 6 7 9 15 6 8 -4 15
-2 15 3 0 12 -29 13 -36 1z"/>
<path d="M2519 488 c-5 -18 -6 -38 -1 -34 7 8 12 36 6 36 -2 0 -4 -1 -5 -2z"/>
<path d="M2740 475 c-10 -13 -9 -19 5 -35 10 -11 20 -18 23 -16 2 3 -3 12 -12
21 -17 17 -13 35 6 35 6 0 8 -3 5 -7 -4 -3 0 -15 9 -25 14 -14 14 -20 4 -33
-8 -10 -9 -15 -1 -15 6 0 11 5 11 11 0 5 4 8 8 5 4 -2 9 4 9 15 1 11 -2 17 -8
14 -5 -4 -9 -1 -9 4 0 6 6 11 13 11 6 1 1 7 -13 15 -32 18 -35 18 -50 0z"/>
<path d="M2580 470 c18 -12 30 -13 30 -2 0 4 -10 9 -22 9 -18 2 -20 0 -8 -7z"/>
<path d="M2650 470 c0 -5 5 -10 10 -10 6 0 10 5 10 10 0 6 -4 10 -10 10 -5 0
-10 -4 -10 -10z"/>
<path d="M2713 442 c0 -12 5 -22 9 -22 11 0 10 12 -2 30 -7 12 -9 10 -7 -8z"/>
<path d="M2621 428 c-14 -23 -14 -23 8 -4 22 20 25 26 13 26 -4 0 -13 -10 -21
-22z"/>
<path d="M7196 432 c-3 -4 4 -9 15 -9 23 -2 25 3 4 10 -8 4 -16 3 -19 -1z"/>
<path d="M7246 432 c-3 -5 1 -9 9 -9 8 0 12 4 9 9 -3 4 -7 8 -9 8 -2 0 -6 -4
-9 -8z"/>
<path d="M2555 420 c-4 -6 -11 -7 -17 -4 -7 4 -8 2 -4 -5 6 -9 11 -9 22 0 14
11 18 19 10 19 -3 0 -8 -5 -11 -10z"/>
<path d="M6948 414 c-28 -15 -37 -34 -17 -34 5 0 7 5 4 10 -3 6 -1 10 4 10 6
0 11 -4 11 -10 0 -5 5 -10 11 -10 8 0 8 5 -1 15 -9 11 -9 15 -1 15 6 0 14 -7
17 -15 4 -10 13 -13 25 -10 13 4 19 2 17 -7 -2 -7 8 -13 22 -15 24 -2 24 -2 2
5 -13 4 -23 12 -23 17 1 6 -6 10 -14 10 -8 0 -20 6 -27 14 -11 12 -10 13 5 8
11 -4 16 -3 12 3 -8 13 -14 12 -47 -6z"/>
<path d="M2720 388 c-13 -18 -16 -27 -7 -20 9 8 20 12 24 9 4 -3 8 6 8 19 0
13 0 24 -1 24 0 0 -11 -15 -24 -32z"/>
<path d="M7334 406 c1 -8 5 -18 8 -22 4 -3 5 1 4 10 -1 8 -5 18 -8 22 -4 3 -5
-1 -4 -10z"/>
<path d="M2670 391 c0 -6 4 -13 10 -16 6 -3 7 1 4 9 -7 18 -14 21 -14 7z"/>
<path d="M2800 385 c0 -8 2 -15 4 -15 2 0 6 7 10 15 3 8 1 15 -4 15 -6 0 -10
-7 -10 -15z"/>
<path d="M7105 389 c-4 -6 -5 -12 -2 -15 2 -3 7 2 10 11 7 17 1 20 -8 4z"/>
<path d="M7150 391 c0 -6 4 -12 8 -15 5 -3 9 1 9 9 0 8 -4 15 -9 15 -4 0 -8
-4 -8 -9z"/>
<path d="M7076 371 c-3 -4 3 -16 13 -25 14 -13 18 -14 18 -2 0 8 -5 14 -11 13
-6 -1 -10 4 -8 11 2 14 -4 16 -12 3z"/>
<path d="M7255 370 c3 -5 8 -10 11 -10 2 0 4 5 4 10 0 6 -5 10 -11 10 -5 0 -7
-4 -4 -10z"/>
<path d="M2891 353 c-1 -27 8 -33 34 -22 19 9 19 9 -2 5 -16 -3 -23 2 -26 18
l-4 21 -2 -22z"/>
<path d="M2930 357 c16 -8 24 -20 22 -33 -2 -18 -2 -18 9 -1 9 15 7 21 -8 32
-10 8 -25 14 -33 15 -8 0 -4 -6 10 -13z"/>
<path d="M3002 350 c-3 -8 -11 -19 -19 -23 -16 -10 -17 -27 -2 -27 5 0 8 4 5
9 -3 5 1 11 9 15 8 3 15 13 15 23 0 10 4 14 8 8 4 -5 13 -10 21 -10 8 0 16 -5
18 -11 2 -6 -6 -10 -18 -10 -12 1 -24 -5 -26 -11 -3 -7 0 -13 7 -13 6 0 8 5 4
11 -4 7 1 10 11 7 10 -1 20 -9 23 -16 2 -7 -2 -11 -8 -10 -19 4 -22 -15 -7
-36 11 -15 16 -16 22 -6 5 8 4 11 -2 7 -6 -4 -14 0 -17 9 -8 22 -8 24 7 21 6
-1 12 5 12 14 0 9 6 23 13 32 11 12 10 15 -5 13 -10 0 -17 4 -16 9 2 16 -49
11 -55 -5z"/>
<path d="M6871 362 c-23 -8 -10 -20 16 -16 23 4 25 3 13 -11 -8 -10 -9 -15 -1
-15 6 0 11 4 11 9 0 5 9 11 20 14 21 5 28 27 9 27 -5 0 -7 -4 -4 -10 3 -5 -1
-10 -10 -10 -9 0 -14 4 -11 8 5 8 -23 11 -43 4z"/>
<path d="M6970 356 c0 -8 -6 -16 -12 -19 -10 -4 -10 -7 0 -18 7 -8 12 -9 11
-4 -2 6 2 20 9 33 8 14 9 22 2 22 -5 0 -10 -6 -10 -14z"/>
<path d="M6995 351 c-6 -11 13 -26 22 -17 4 3 1 6 -6 6 -7 0 -9 5 -6 10 3 6 4
10 1 10 -3 0 -7 -4 -11 -9z"/>
<path d="M2794 336 c1 -8 5 -18 8 -22 4 -3 5 1 4 10 -1 8 -5 18 -8 22 -4 3 -5
-1 -4 -10z"/>
<path d="M2837 318 c19 -22 19 -22 26 -4 4 11 1 13 -10 9 -10 -4 -14 -2 -10 4
3 5 0 10 -8 10 -13 0 -12 -4 2 -19z"/>
<path d="M7038 333 c7 -3 16 -2 19 1 4 3 -2 6 -13 5 -11 0 -14 -3 -6 -6z"/>
<path d="M6857 323 c-10 -10 -8 -23 4 -23 5 0 8 4 5 9 -4 5 0 12 6 14 7 3 8 6
2 6 -6 1 -14 -2 -17 -6z"/>
<path d="M2876 303 c-6 -14 -5 -15 5 -6 7 7 10 15 7 18 -3 3 -9 -2 -12 -12z"/>
<path d="M3157 314 c-3 -3 -3 -12 0 -20 4 -10 0 -13 -13 -8 -14 4 -16 3 -5 -4
8 -6 9 -12 3 -16 -6 -3 -13 -2 -17 4 -3 5 -11 10 -18 10 -6 0 -2 -6 8 -14 11
-8 23 -12 27 -10 4 2 9 0 13 -6 3 -5 12 -10 18 -10 7 0 4 5 -6 11 -9 6 -15 15
-11 21 4 6 9 5 15 -3 5 -9 7 -4 5 14 -3 30 -9 40 -19 31z"/>
<path d="M6916 304 c-5 -14 -4 -15 9 -4 17 14 19 20 6 20 -5 0 -12 -7 -15 -16z"/>
<path d="M6999 318 c-5 -18 -6 -38 -1 -34 7 8 12 36 6 36 -2 0 -4 -1 -5 -2z"/>
<path d="M2900 290 c-9 -6 -10 -10 -3 -10 6 0 15 5 18 10 8 12 4 12 -15 0z"/>
<path d="M3223 279 c-2 -23 3 -25 10 -4 4 8 3 16 -1 19 -4 3 -9 -4 -9 -15z"/>
<path d="M6596 285 c-8 -9 -13 -22 -10 -30 9 -23 -26 -32 -41 -11 -9 11 -15
13 -20 6 -3 -5 -9 -8 -13 -6 -4 2 -8 -6 -8 -19 -2 -19 1 -21 11 -12 7 7 11 15
8 20 -2 4 0 7 6 7 18 0 21 -17 6 -30 -8 -7 -15 -17 -15 -23 0 -5 8 -1 18 10
16 19 42 33 70 39 8 1 17 6 20 10 4 4 -1 4 -11 1 -13 -5 -17 -3 -14 5 2 7 12
12 21 10 10 -2 24 2 32 9 8 6 17 10 20 7 3 -3 -9 -17 -26 -32 -17 -14 -28 -26
-23 -26 5 0 19 9 31 20 11 11 23 16 26 12 7 -11 -20 -43 -29 -34 -5 4 -5 1 -1
-5 10 -17 9 -18 35 18 l24 32 -24 18 c-20 15 -25 15 -34 3 -11 -16 -49 -9 -39
7 8 14 -3 10 -20 -6z m104 -25 c0 -5 -2 -10 -4 -10 -3 0 -8 5 -11 10 -3 6 -1
10 4 10 6 0 11 -4 11 -10z"/>
<path d="M6775 290 c3 -5 11 -10 16 -10 6 0 7 5 4 10 -3 6 -11 10 -16 10 -6 0
-7 -4 -4 -10z"/>
<path d="M6956 288 c5 -7 2 -9 -8 -6 -8 4 -15 0 -15 -7 0 -10 5 -11 19 -4 20
11 24 29 7 29 -5 0 -7 -5 -3 -12z"/>
<path d="M2996 275 c4 -8 8 -15 10 -15 2 0 4 7 4 15 0 8 -4 15 -10 15 -5 0 -7
-7 -4 -15z"/>
<path d="M6866 273 c-6 -14 -5 -15 5 -6 7 7 10 15 7 18 -3 3 -9 -2 -12 -12z"/>
<path d="M7069 273 c-13 -16 -12 -17 4 -4 9 7 17 15 17 17 0 8 -8 3 -21 -13z"/>
<path d="M2833 265 c0 -8 4 -12 9 -9 5 3 6 10 3 15 -9 13 -12 11 -12 -6z"/>
<path d="M2924 273 c4 -4 16 -8 28 -10 28 -4 18 6 -12 12 -12 2 -20 1 -16 -2z"/>
<path d="M6748 273 c7 -3 16 -2 19 1 4 3 -2 6 -13 5 -11 0 -14 -3 -6 -6z"/>
<path d="M3190 260 c0 -5 5 -10 10 -10 6 0 10 5 10 10 0 6 -4 10 -10 10 -5 0
-10 -4 -10 -10z"/>
<path d="M3310 258 c0 -6 7 -7 16 -4 9 3 14 1 12 -5 -2 -6 -7 -9 -10 -7 -8 3
-39 -35 -33 -40 2 -2 14 5 26 17 13 12 29 21 36 21 7 0 13 5 13 10 0 6 -3 9
-7 9 -5 -1 -10 0 -13 1 -20 7 -40 7 -40 -2z"/>
<path d="M6555 250 c3 -5 8 -10 11 -10 2 0 4 5 4 10 0 6 -5 10 -11 10 -5 0 -7
-4 -4 -10z"/>
<path d="M6733 244 c-3 -8 -9 -11 -14 -8 -5 3 -9 0 -9 -5 0 -15 20 -14 26 2 2
7 13 13 24 14 12 1 17 -3 14 -12 -3 -7 -1 -15 4 -19 5 -3 8 5 7 17 -2 25 -43
34 -52 11z"/>
<path d="M6975 250 c3 -5 8 -10 11 -10 2 0 4 5 4 10 0 6 -5 10 -11 10 -5 0 -7
-4 -4 -10z"/>
<path d="M3100 230 c-9 -6 -10 -10 -3 -10 6 0 15 5 18 10 8 12 4 12 -15 0z"/>
<path d="M3130 230 c0 -5 5 -10 10 -10 6 0 10 5 10 10 0 6 -4 10 -10 10 -5 0
-10 -4 -10 -10z"/>
<path d="M3190 231 c0 -10 19 -25 25 -20 1 2 -3 10 -11 17 -8 7 -14 8 -14 3z"/>
<path d="M3363 229 c-23 -8 -60 -56 -50 -65 3 -3 8 4 12 16 4 14 12 19 24 15
10 -3 25 3 35 14 20 22 10 32 -21 20z m17 -14 c-14 -17 -30 -20 -30 -6 0 5 8
12 18 14 9 3 19 5 21 6 2 0 -2 -6 -9 -14z"/>
<path d="M6826 228 c3 -5 10 -6 15 -3 13 9 11 12 -6 12 -8 0 -12 -4 -9 -9z"/>
<path d="M3160 216 c0 -2 7 -7 16 -10 8 -3 12 -2 9 4 -6 10 -25 14 -25 6z"/>
<path d="M6373 209 c-6 -6 -9 -19 -6 -28 4 -14 3 -14 -10 1 -12 16 -14 15 -14
-12 0 -17 4 -30 9 -30 5 0 7 4 3 9 -3 5 4 13 15 16 18 6 19 9 8 22 -11 14 -10
15 10 9 14 -5 22 -3 22 4 0 6 -4 9 -9 6 -5 -4 -11 -1 -13 4 -2 7 -7 7 -15 -1z"/>
<path d="M6590 211 c0 -5 7 -11 14 -14 10 -4 13 -1 9 9 -6 15 -23 19 -23 5z"/>
<path d="M6693 213 c4 -6 2 -13 -4 -15 -7 -2 -6 -8 3 -16 12 -9 14 -8 13 8 -1
11 -5 23 -10 27 -4 5 -5 3 -2 -4z"/>
<path d="M3055 201 c-3 -5 -2 -12 3 -15 5 -3 9 1 9 9 0 17 -3 19 -12 6z"/>
<path d="M3241 193 c7 -10 14 -19 15 -21 1 -2 4 4 8 13 3 9 2 13 -4 10 -6 -3
-10 -1 -10 4 0 6 -5 11 -11 11 -8 0 -7 -6 2 -17z"/>
<path d="M6566 197 c3 -10 9 -15 12 -12 3 3 0 11 -7 18 -10 9 -11 8 -5 -6z"/>
<path d="M3156 192 c-3 -5 1 -9 9 -9 8 0 12 4 9 9 -3 4 -7 8 -9 8 -2 0 -6 -4
-9 -8z"/>
<path d="M6846 192 c-3 -5 1 -9 9 -9 8 0 12 4 9 9 -3 4 -7 8 -9 8 -2 0 -6 -4
-9 -8z"/>
<path d="M3275 180 c-3 -6 1 -7 9 -4 18 7 21 14 7 14 -6 0 -13 -4 -16 -10z"/>
<path d="M6486 174 c-11 -8 -16 -14 -10 -14 13 0 39 18 34 24 -3 2 -14 -2 -24
-10z"/>
<path d="M6586 173 c-6 -14 -5 -15 5 -6 7 7 10 15 7 18 -3 3 -9 -2 -12 -12z"/>
<path d="M6753 175 c0 -8 4 -12 9 -9 5 3 6 10 3 15 -9 13 -12 11 -12 -6z"/>
<path d="M3115 170 c3 -5 8 -10 11 -10 2 0 4 5 4 10 0 6 -5 10 -11 10 -5 0 -7
-4 -4 -10z"/>
<path d="M3180 170 c-9 -6 -10 -10 -3 -10 6 0 15 5 18 10 8 12 4 12 -15 0z"/>
<path d="M3339 179 c-6 -17 -5 -47 2 -43 4 2 6 12 3 22 -5 14 -3 14 10 -2 9
-11 16 -15 16 -9 0 10 -29 39 -31 32z"/>
<path d="M3577 166 c-4 -9 -13 -13 -21 -10 -19 7 -31 -15 -16 -29 10 -9 12 -8
7 6 -7 18 8 24 18 6 4 -5 18 -14 31 -19 13 -5 24 -14 24 -20 0 -6 -4 -9 -9 -5
-15 9 -25 -15 -12 -28 9 -9 11 -8 5 6 -4 12 -2 17 7 15 8 -2 15 4 15 12 3 33
5 34 20 7 9 -16 18 -26 21 -24 3 3 -2 16 -11 28 -11 16 -12 26 -5 35 6 8 7 14
0 18 -5 4 -12 2 -16 -4 -9 -14 -26 -13 -22 2 3 18 -30 21 -36 4z m25 -5 c-11
-6 -10 -10 3 -15 10 -3 25 -1 34 6 11 9 11 6 -2 -9 -16 -18 -23 -20 -43 -11
-18 9 -21 14 -13 25 6 7 17 13 23 13 7 0 6 -4 -2 -9z"/>
<path d="M6534 154 c1 -7 6 -17 11 -21 4 -4 5 -3 1 4 -3 7 1 13 11 15 15 3 15
5 -3 10 -15 4 -21 1 -20 -8z"/>
<path d="M3396 145 c-11 -8 -16 -15 -10 -15 5 0 18 7 28 15 11 8 16 15 10 15
-5 0 -18 -7 -28 -15z"/>
<path d="M6375 150 c-7 -12 2 -12 30 0 19 8 19 9 -2 9 -12 1 -25 -3 -28 -9z"/>
<path d="M3424 135 c-18 -14 -18 -14 4 -8 12 3 22 9 22 14 0 12 -3 11 -26 -6z"/>
<path d="M6430 141 c0 -7 -5 -9 -12 -5 -7 5 -8 3 -3 -5 5 -9 10 -10 18 -2 6 6
8 14 4 18 -4 3 -7 1 -7 -6z"/>
<path d="M3235 130 c3 -5 8 -10 11 -10 2 0 4 5 4 10 0 6 -5 10 -11 10 -5 0 -7
-4 -4 -10z"/>
<path d="M3719 131 c11 -7 11 -10 0 -15 -8 -3 -3 -3 11 1 22 5 23 4 11 -11
-12 -15 -9 -18 15 -15 3 0 17 -16 30 -35 14 -20 27 -36 30 -36 2 0 -8 18 -22
40 -15 22 -30 37 -35 34 -5 -3 -9 0 -9 5 0 6 6 11 13 11 6 1 1 7 -13 15 -27
15 -54 21 -31 6z"/>
<path d="M6319 133 c0 -5 -3 -19 -5 -32 -2 -14 -2 -22 1 -19 8 8 17 58 10 58
-3 0 -5 -3 -6 -7z"/>
<path d="M6455 133 c3 -3 -1 -11 -8 -17 -7 -6 -10 -10 -8 -9 2 2 9 -2 16 -7 8
-7 11 -4 10 10 -1 11 -4 22 -8 25 -4 3 -5 2 -2 -2z"/>
<path d="M6499 138 c-10 -33 6 -46 28 -24 4 4 1 6 -7 4 -8 -2 -14 3 -12 10 2
10 -6 19 -9 10z"/>
<path d="M6627 129 c7 -7 15 -10 18 -7 3 3 -2 9 -12 12 -14 6 -15 5 -6 -5z"/>
<path d="M3290 126 c0 -2 8 -10 18 -17 15 -13 16 -12 3 4 -13 16 -21 21 -21
13z"/>
<path d="M3784 118 c-6 -10 36 -82 43 -74 3 3 -2 15 -11 27 -10 15 -12 28 -6
39 6 12 5 17 -6 17 -8 0 -17 -4 -20 -9z"/>
<path d="M6039 128 c-1 -2 -3 -22 -4 -46 -3 -43 2 -51 9 -16 3 11 7 26 11 35
3 10 2 20 -4 24 -6 3 -12 5 -12 3z"/>
<path d="M6350 120 c-9 -6 -10 -10 -3 -10 6 0 15 5 18 10 8 12 4 12 -15 0z"/>
<path d="M6388 123 c6 -2 9 -10 6 -15 -4 -7 -2 -8 5 -4 13 9 5 26 -12 25 -9 0
-8 -2 1 -6z"/>
<path d="M3450 112 c0 -4 10 -9 22 -9 18 -2 20 0 8 7 -18 12 -30 13 -30 2z"/>
<path d="M3505 109 c-11 -16 -1 -19 13 -3 7 8 8 14 3 14 -5 0 -13 -5 -16 -11z"/>
<path d="M3551 110 c-9 -5 -4 -7 13 -7 29 0 32 2 13 10 -8 3 -20 2 -26 -3z"/>
<path d="M6261 110 c-9 -5 -4 -7 13 -7 29 0 32 2 13 10 -8 3 -20 2 -26 -3z"/>
<path d="M3505 72 c-12 -17 -13 -22 -4 -15 9 7 18 11 20 8 3 -2 5 5 6 15 2 25
2 25 -22 -8z"/>
<path d="M3700 89 c0 -5 5 -7 10 -4 6 3 10 8 10 11 0 2 -4 4 -10 4 -5 0 -10
-5 -10 -11z"/>
<path d="M6336 91 c-3 -5 1 -14 9 -21 8 -7 12 -17 8 -23 -3 -6 -1 -7 6 -3 6 4
9 12 5 17 -3 5 0 18 7 27 11 14 11 15 -1 5 -17 -15 -34 -17 -25 -3 3 6 4 10 1
10 -3 0 -7 -4 -10 -9z"/>
<path d="M6555 89 c-3 -4 2 -6 10 -5 21 3 28 13 10 13 -9 0 -18 -4 -20 -8z"/>
<path d="M3677 75 c-4 -8 -3 -16 1 -19 4 -3 9 4 9 15 2 23 -3 25 -10 4z"/>
<path d="M5820 75 c-15 -18 -34 -20 -24 -2 4 6 -2 4 -13 -5 -25 -23 -39 -23
-22 0 12 15 12 16 -2 5 -9 -7 -18 -11 -20 -8 -3 2 -10 -4 -16 -13 -8 -14 -7
-23 3 -37 8 -10 14 -14 14 -8 0 13 32 12 43 -2 5 -6 7 -3 4 7 -3 9 2 22 10 30
14 11 16 11 11 -3 -3 -9 -2 -22 3 -30 6 -9 8 -3 5 19 -3 24 2 36 17 47 12 8
16 15 10 15 -6 0 -16 -7 -23 -15z m-43 -43 c-16 -15 -19 -15 -27 -2 -7 11 -10
11 -10 2 0 -7 -5 -10 -10 -7 -16 10 0 26 20 20 10 -3 21 -1 25 5 4 6 10 9 13
5 3 -3 -2 -13 -11 -23z"/>
<path d="M6270 81 c0 -6 4 -13 10 -16 6 -3 7 1 4 9 -7 18 -14 21 -14 7z"/>
<path d="M6713 75 c0 -8 4 -12 9 -9 5 3 6 10 3 15 -9 13 -12 11 -12 -6z"/>
<path d="M3336 68 c3 -5 10 -6 15 -3 13 9 11 12 -6 12 -8 0 -12 -4 -9 -9z"/>
<path d="M3386 68 c3 -5 10 -6 15 -3 13 9 11 12 -6 12 -8 0 -12 -4 -9 -9z"/>
<path d="M3625 70 c-3 -6 1 -7 9 -4 18 7 21 14 7 14 -6 0 -13 -4 -16 -10z"/>
<path d="M3711 71 c-9 -6 -6 -8 13 -8 14 0 23 3 20 8 -7 11 -15 11 -33 0z"/>
<path d="M3990 53 c-18 -23 -24 -25 -40 -15 -11 7 -25 12 -32 12 -7 0 2 -8 21
-17 32 -16 34 -16 48 3 8 10 20 18 28 16 7 -1 16 2 20 7 3 6 13 8 23 5 14 -5
15 -4 2 5 -9 6 -18 7 -24 1 -13 -13 -29 -13 -21 0 13 21 -4 9 -25 -17z"/>
<path d="M6080 69 c0 -4 11 -6 25 -6 13 0 22 3 20 8 -6 9 -45 8 -45 -2z"/>
<path d="M6185 70 c-3 -6 1 -7 9 -4 18 7 21 14 7 14 -6 0 -13 -4 -16 -10z"/>
<path d="M5839 68 c-6 -14 -6 -57 0 -53 8 4 12 55 5 55 -2 0 -5 -1 -5 -2z"/>
<path d="M3588 48 c5 -5 16 -8 23 -6 8 3 3 7 -10 11 -17 4 -21 3 -13 -5z"/>
<path d="M3655 51 c6 -11 4 -13 -10 -7 -18 7 -18 6 0 -14 10 -11 19 -20 20
-20 6 0 -3 41 -10 47 -4 5 -4 2 0 -6z"/>
<path d="M3750 50 c-9 -6 -10 -10 -3 -10 6 0 15 5 18 10 8 12 4 12 -15 0z"/>
<path d="M5860 50 c0 -5 5 -10 11 -10 5 0 7 5 4 10 -3 6 -8 10 -11 10 -2 0 -4
-4 -4 -10z"/>
<path d="M6046 35 c-9 -14 -12 -25 -6 -25 5 0 10 5 10 11 0 5 4 7 10 4 6 -4 7
1 3 10 -5 15 -3 15 15 4 11 -7 19 -16 16 -20 -2 -4 -1 -10 4 -13 4 -2 8 6 8
19 0 13 -4 21 -8 18 -5 -2 -15 0 -22 6 -10 9 -17 5 -30 -14z"/>
<path d="M6195 51 c-3 -6 3 -14 13 -20 14 -7 19 -6 19 4 0 7 -7 11 -15 7 -10
-3 -13 -1 -8 6 4 7 5 12 2 12 -3 0 -7 -4 -11 -9z"/>
<path d="M3535 39 c-4 -6 -5 -12 -2 -15 2 -3 7 2 10 11 7 17 1 20 -8 4z"/>
<path d="M3891 34 c0 -11 3 -14 6 -6 3 7 2 16 -1 19 -3 4 -6 -2 -5 -13z"/>
<path d="M4028 39 c-6 -4 -16 -5 -21 -2 -5 3 -4 -4 2 -16 13 -24 26 -29 18 -7
-3 8 0 17 8 20 8 3 16 -3 20 -13 3 -10 13 -18 21 -18 15 0 15 1 0 12 -8 7 -13
15 -9 19 4 3 18 -4 31 -16 l25 -23 -14 22 c-8 13 -16 23 -19 24 -31 5 -51 4
-62 -2z"/>
<path d="M3716 32 c-3 -4 4 -9 15 -9 23 -2 25 3 4 10 -8 4 -16 3 -19 -1z"/>
<path d="M3765 29 c-4 -6 -4 -13 -1 -16 3 -4 6 -1 6 6 0 7 5 9 12 5 7 -4 8 -3
4 4 -9 15 -13 15 -21 1z"/>
<path d="M4331 27 c-1 -10 -5 -16 -10 -12 -5 3 -12 1 -16 -4 -6 -10 33 -6 43
4 3 2 11 0 19 -6 9 -9 13 -8 13 0 0 12 22 11 31 -2 3 -5 9 -2 12 6 4 11 -2 14
-29 11 -25 -2 -33 0 -27 9 5 8 2 8 -9 -1 -13 -10 -17 -10 -21 0 -3 8 -6 6 -6
-5z"/>
<path d="M5555 27 c-14 -11 -15 -16 -5 -22 9 -5 11 -4 6 3 -4 7 -1 12 8 12 9
0 16 5 16 10 0 13 -3 13 -25 -3z"/>
<path d="M5910 30 c0 -5 5 -10 10 -10 6 0 10 5 10 10 0 6 -4 10 -10 10 -5 0
-10 -4 -10 -10z"/>
<path d="M6415 31 c-3 -5 -2 -12 3 -15 5 -3 9 1 9 9 0 17 -3 19 -12 6z"/>
<path d="M3830 21 c0 -6 4 -13 10 -16 6 -3 7 1 4 9 -7 18 -14 21 -14 7z"/>
<path d="M3910 18 c0 -6 3 -8 7 -5 3 4 13 1 22 -6 14 -11 14 -10 2 6 -15 20
-31 22 -31 5z"/>
<path d="M4187 17 c-3 -8 1 -14 8 -14 7 0 11 6 8 14 -6 16 -10 16 -16 0z"/>
<path d="M4447 13 c6 -16 10 -16 16 0 3 8 -1 14 -8 14 -7 0 -11 -6 -8 -14z"/>
<path d="M5864 15 c-10 -8 -14 -14 -9 -14 6 0 19 6 29 14 11 8 15 15 10 15 -6
0 -19 -7 -30 -15z"/>
<path d="M5936 12 c-3 -5 1 -9 9 -9 8 0 12 4 9 9 -3 4 -7 8 -9 8 -2 0 -6 -4
-9 -8z"/>
</g>
</svg>
